G04 #@! TF.FileFunction,Soldermask,Top*
%FSLAX46Y46*%
G04 Gerber Fmt 4.6, Leading zero omitted, Abs format (unit mm)*
G04 Created by KiCad (PCBNEW (2015-03-02 BZR 5466)-product) date 2015 April 22, Wednesday 22:19:37*
%MOMM*%
G01*
G04 APERTURE LIST*
%ADD10C,0.150000*%
%ADD11R,0.392400X0.952400*%
%ADD12R,1.452400X0.352400*%
%ADD13O,1.352400X0.352400*%
%ADD14R,1.352400X0.652400*%
%ADD15O,1.252400X0.352400*%
%ADD16R,0.302400X0.352400*%
%ADD17R,1.676400X1.676400*%
%ADD18C,1.676400*%
%ADD19C,1.652400*%
%ADD20C,2.152400*%
%ADD21O,0.422240X1.042240*%
%ADD22O,1.042240X0.422240*%
%ADD23R,5.096800X5.096800*%
%ADD24O,0.346600X0.971600*%
%ADD25O,0.971600X0.346600*%
%ADD26R,4.321800X4.321800*%
%ADD27C,1.422400*%
%ADD28R,1.066800X1.066800*%
%ADD29R,1.351280X1.551940*%
%ADD30R,0.447040X1.653540*%
%ADD31R,1.653540X0.447040*%
%ADD32R,2.057400X0.787400*%
%ADD33R,3.853180X1.351280*%
%ADD34R,0.652780X0.551180*%
%ADD35R,0.652780X0.853440*%
%ADD36R,0.751840X0.652780*%
%ADD37R,0.703580X0.401320*%
%ADD38R,0.711200X0.762000*%
%ADD39R,0.762000X0.711200*%
%ADD40R,0.561340X0.482600*%
%ADD41R,0.482600X0.561340*%
%ADD42R,1.219200X1.219200*%
%ADD43C,1.219200*%
%ADD44R,1.353820X1.643380*%
%ADD45R,1.643380X1.353820*%
%ADD46R,1.143000X0.609600*%
%ADD47R,0.382400X0.797400*%
%ADD48R,0.965400X0.452400*%
%ADD49R,0.797400X0.382400*%
%ADD50R,0.452400X0.965400*%
%ADD51R,1.203200X1.703200*%
%ADD52O,0.422240X1.492240*%
%ADD53R,3.326880X3.326880*%
%ADD54O,1.492240X0.422240*%
%ADD55O,0.462240X1.342240*%
%ADD56O,1.342240X0.462240*%
%ADD57R,2.451880X2.451880*%
%ADD58R,4.002400X1.152400*%
%ADD59R,3.952400X1.152400*%
%ADD60R,1.152400X3.502400*%
%ADD61R,1.152400X3.952400*%
%ADD62R,1.002400X0.432400*%
%ADD63R,0.977400X1.352400*%
%ADD64R,0.432400X1.552400*%
%ADD65C,0.737400*%
%ADD66C,0.914400*%
%ADD67C,5.752400*%
%ADD68C,0.752400*%
%ADD69R,1.252400X0.752400*%
%ADD70R,2.552400X1.652400*%
%ADD71R,2.202400X3.802400*%
%ADD72R,4.342400X1.932400*%
%ADD73R,4.342400X2.817400*%
%ADD74R,1.052400X0.452400*%
%ADD75R,0.652400X1.252400*%
%ADD76R,1.953200X0.603200*%
%ADD77R,2.252400X1.527400*%
%ADD78R,1.612400X2.292400*%
%ADD79R,1.502400X1.977400*%
%ADD80R,2.252400X1.902400*%
%ADD81C,1.552400*%
%ADD82C,2.000000*%
%ADD83R,0.952400X0.392400*%
%ADD84R,0.352400X1.452400*%
%ADD85O,0.352400X1.352400*%
%ADD86R,0.652400X1.352400*%
%ADD87O,0.352400X1.252400*%
%ADD88R,0.352400X0.302400*%
%ADD89C,0.838200*%
%ADD90C,0.939800*%
%ADD91C,1.092200*%
G04 APERTURE END LIST*
D10*
G36*
X163640450Y-137810302D02*
X163956555Y-138126407D01*
X162787326Y-139295636D01*
X162471221Y-138979531D01*
X163640450Y-137810302D01*
X163640450Y-137810302D01*
G37*
G36*
X163286628Y-137456480D02*
X163602733Y-137772585D01*
X162433504Y-138941814D01*
X162117399Y-138625709D01*
X163286628Y-137456480D01*
X163286628Y-137456480D01*
G37*
G36*
X162932806Y-137102657D02*
X163248911Y-137418762D01*
X162079682Y-138587991D01*
X161763577Y-138271886D01*
X162932806Y-137102657D01*
X162932806Y-137102657D01*
G37*
G36*
X162578984Y-136748835D02*
X162895089Y-137064940D01*
X161725860Y-138234169D01*
X161409755Y-137918064D01*
X162578984Y-136748835D01*
X162578984Y-136748835D01*
G37*
G36*
X162225162Y-136395013D02*
X162541267Y-136711118D01*
X161372038Y-137880347D01*
X161055933Y-137564242D01*
X162225162Y-136395013D01*
X162225162Y-136395013D01*
G37*
G36*
X161873136Y-136042987D02*
X162189241Y-136359092D01*
X161020012Y-137528321D01*
X160703907Y-137212216D01*
X161873136Y-136042987D01*
X161873136Y-136042987D01*
G37*
G36*
X161519314Y-135689165D02*
X161835419Y-136005270D01*
X160666190Y-137174499D01*
X160350085Y-136858394D01*
X161519314Y-135689165D01*
X161519314Y-135689165D01*
G37*
G36*
X161165492Y-135335343D02*
X161481597Y-135651448D01*
X160312368Y-136820677D01*
X159996263Y-136504572D01*
X161165492Y-135335343D01*
X161165492Y-135335343D01*
G37*
G36*
X160811670Y-134981521D02*
X161127775Y-135297626D01*
X159958546Y-136466855D01*
X159642441Y-136150750D01*
X160811670Y-134981521D01*
X160811670Y-134981521D01*
G37*
G36*
X160457848Y-134627699D02*
X160773953Y-134943804D01*
X159604724Y-136113033D01*
X159288619Y-135796928D01*
X160457848Y-134627699D01*
X160457848Y-134627699D01*
G37*
G36*
X160104025Y-134273877D02*
X160420130Y-134589982D01*
X159250901Y-135759211D01*
X158934796Y-135443106D01*
X160104025Y-134273877D01*
X160104025Y-134273877D01*
G37*
G36*
X159751999Y-133921851D02*
X160068104Y-134237956D01*
X158898875Y-135407185D01*
X158582770Y-135091080D01*
X159751999Y-133921851D01*
X159751999Y-133921851D01*
G37*
G36*
X159398177Y-133568029D02*
X159714282Y-133884134D01*
X158545053Y-135053363D01*
X158228948Y-134737258D01*
X159398177Y-133568029D01*
X159398177Y-133568029D01*
G37*
G36*
X159044355Y-133214207D02*
X159360460Y-133530312D01*
X158191231Y-134699541D01*
X157875126Y-134383436D01*
X159044355Y-133214207D01*
X159044355Y-133214207D01*
G37*
G36*
X158690533Y-132860384D02*
X159006638Y-133176489D01*
X157837409Y-134345718D01*
X157521304Y-134029613D01*
X158690533Y-132860384D01*
X158690533Y-132860384D01*
G37*
G36*
X158336711Y-132506562D02*
X158652816Y-132822667D01*
X157483587Y-133991896D01*
X157167482Y-133675791D01*
X158336711Y-132506562D01*
X158336711Y-132506562D01*
G37*
G36*
X157982889Y-132152740D02*
X158298994Y-132468845D01*
X157129765Y-133638074D01*
X156813660Y-133321969D01*
X157982889Y-132152740D01*
X157982889Y-132152740D01*
G37*
G36*
X157629067Y-131798918D02*
X157945172Y-132115023D01*
X156775943Y-133284252D01*
X156459838Y-132968147D01*
X157629067Y-131798918D01*
X157629067Y-131798918D01*
G37*
G36*
X157277041Y-131446892D02*
X157593146Y-131762997D01*
X156423917Y-132932226D01*
X156107812Y-132616121D01*
X157277041Y-131446892D01*
X157277041Y-131446892D01*
G37*
G36*
X156923219Y-131093070D02*
X157239324Y-131409175D01*
X156070095Y-132578404D01*
X155753990Y-132262299D01*
X156923219Y-131093070D01*
X156923219Y-131093070D01*
G37*
G36*
X156569397Y-130739248D02*
X156885502Y-131055353D01*
X155716273Y-132224582D01*
X155400168Y-131908477D01*
X156569397Y-130739248D01*
X156569397Y-130739248D01*
G37*
G36*
X156215575Y-130385426D02*
X156531680Y-130701531D01*
X155362451Y-131870760D01*
X155046346Y-131554655D01*
X156215575Y-130385426D01*
X156215575Y-130385426D01*
G37*
G36*
X155861752Y-130031604D02*
X156177857Y-130347709D01*
X155008628Y-131516938D01*
X154692523Y-131200833D01*
X155861752Y-130031604D01*
X155861752Y-130031604D01*
G37*
G36*
X155507930Y-129677782D02*
X155824035Y-129993887D01*
X154654806Y-131163116D01*
X154338701Y-130847011D01*
X155507930Y-129677782D01*
X155507930Y-129677782D01*
G37*
G36*
X155154108Y-129323960D02*
X155470213Y-129640065D01*
X154300984Y-130809294D01*
X153984879Y-130493189D01*
X155154108Y-129323960D01*
X155154108Y-129323960D01*
G37*
G36*
X154802082Y-128971934D02*
X155118187Y-129288039D01*
X153948958Y-130457268D01*
X153632853Y-130141163D01*
X154802082Y-128971934D01*
X154802082Y-128971934D01*
G37*
G36*
X154448260Y-128618111D02*
X154764365Y-128934216D01*
X153595136Y-130103445D01*
X153279031Y-129787340D01*
X154448260Y-128618111D01*
X154448260Y-128618111D01*
G37*
G36*
X154094438Y-128264289D02*
X154410543Y-128580394D01*
X153241314Y-129749623D01*
X152925209Y-129433518D01*
X154094438Y-128264289D01*
X154094438Y-128264289D01*
G37*
G36*
X153740616Y-127910467D02*
X154056721Y-128226572D01*
X152887492Y-129395801D01*
X152571387Y-129079696D01*
X153740616Y-127910467D01*
X153740616Y-127910467D01*
G37*
G36*
X153386794Y-127556645D02*
X153702899Y-127872750D01*
X152533670Y-129041979D01*
X152217565Y-128725874D01*
X153386794Y-127556645D01*
X153386794Y-127556645D01*
G37*
G36*
X153032972Y-127202823D02*
X153349077Y-127518928D01*
X152179848Y-128688157D01*
X151863743Y-128372052D01*
X153032972Y-127202823D01*
X153032972Y-127202823D01*
G37*
G36*
X152680946Y-126850797D02*
X152997051Y-127166902D01*
X151827822Y-128336131D01*
X151511717Y-128020026D01*
X152680946Y-126850797D01*
X152680946Y-126850797D01*
G37*
G36*
X152327124Y-126496975D02*
X152643229Y-126813080D01*
X151474000Y-127982309D01*
X151157895Y-127666204D01*
X152327124Y-126496975D01*
X152327124Y-126496975D01*
G37*
G36*
X151973302Y-126143153D02*
X152289407Y-126459258D01*
X151120178Y-127628487D01*
X150804073Y-127312382D01*
X151973302Y-126143153D01*
X151973302Y-126143153D01*
G37*
G36*
X151619479Y-125789331D02*
X151935584Y-126105436D01*
X150766355Y-127274665D01*
X150450250Y-126958560D01*
X151619479Y-125789331D01*
X151619479Y-125789331D01*
G37*
G36*
X151265657Y-125435509D02*
X151581762Y-125751614D01*
X150412533Y-126920843D01*
X150096428Y-126604738D01*
X151265657Y-125435509D01*
X151265657Y-125435509D01*
G37*
G36*
X146913826Y-125751614D02*
X147229931Y-125435509D01*
X148399160Y-126604738D01*
X148083055Y-126920843D01*
X146913826Y-125751614D01*
X146913826Y-125751614D01*
G37*
G36*
X146560004Y-126105436D02*
X146876109Y-125789331D01*
X148045338Y-126958560D01*
X147729233Y-127274665D01*
X146560004Y-126105436D01*
X146560004Y-126105436D01*
G37*
G36*
X146206181Y-126459258D02*
X146522286Y-126143153D01*
X147691515Y-127312382D01*
X147375410Y-127628487D01*
X146206181Y-126459258D01*
X146206181Y-126459258D01*
G37*
G36*
X145852359Y-126813080D02*
X146168464Y-126496975D01*
X147337693Y-127666204D01*
X147021588Y-127982309D01*
X145852359Y-126813080D01*
X145852359Y-126813080D01*
G37*
G36*
X145498537Y-127166902D02*
X145814642Y-126850797D01*
X146983871Y-128020026D01*
X146667766Y-128336131D01*
X145498537Y-127166902D01*
X145498537Y-127166902D01*
G37*
G36*
X145146511Y-127518928D02*
X145462616Y-127202823D01*
X146631845Y-128372052D01*
X146315740Y-128688157D01*
X145146511Y-127518928D01*
X145146511Y-127518928D01*
G37*
G36*
X144792689Y-127872750D02*
X145108794Y-127556645D01*
X146278023Y-128725874D01*
X145961918Y-129041979D01*
X144792689Y-127872750D01*
X144792689Y-127872750D01*
G37*
G36*
X144438867Y-128226572D02*
X144754972Y-127910467D01*
X145924201Y-129079696D01*
X145608096Y-129395801D01*
X144438867Y-128226572D01*
X144438867Y-128226572D01*
G37*
G36*
X144085045Y-128580394D02*
X144401150Y-128264289D01*
X145570379Y-129433518D01*
X145254274Y-129749623D01*
X144085045Y-128580394D01*
X144085045Y-128580394D01*
G37*
G36*
X143731223Y-128934216D02*
X144047328Y-128618111D01*
X145216557Y-129787340D01*
X144900452Y-130103445D01*
X143731223Y-128934216D01*
X143731223Y-128934216D01*
G37*
G36*
X143377401Y-129288039D02*
X143693506Y-128971934D01*
X144862735Y-130141163D01*
X144546630Y-130457268D01*
X143377401Y-129288039D01*
X143377401Y-129288039D01*
G37*
G36*
X143025375Y-129640065D02*
X143341480Y-129323960D01*
X144510709Y-130493189D01*
X144194604Y-130809294D01*
X143025375Y-129640065D01*
X143025375Y-129640065D01*
G37*
G36*
X142671553Y-129993887D02*
X142987658Y-129677782D01*
X144156887Y-130847011D01*
X143840782Y-131163116D01*
X142671553Y-129993887D01*
X142671553Y-129993887D01*
G37*
G36*
X142317731Y-130347709D02*
X142633836Y-130031604D01*
X143803065Y-131200833D01*
X143486960Y-131516938D01*
X142317731Y-130347709D01*
X142317731Y-130347709D01*
G37*
G36*
X141963908Y-130701531D02*
X142280013Y-130385426D01*
X143449242Y-131554655D01*
X143133137Y-131870760D01*
X141963908Y-130701531D01*
X141963908Y-130701531D01*
G37*
G36*
X141610086Y-131055353D02*
X141926191Y-130739248D01*
X143095420Y-131908477D01*
X142779315Y-132224582D01*
X141610086Y-131055353D01*
X141610086Y-131055353D01*
G37*
G36*
X141256264Y-131409175D02*
X141572369Y-131093070D01*
X142741598Y-132262299D01*
X142425493Y-132578404D01*
X141256264Y-131409175D01*
X141256264Y-131409175D01*
G37*
G36*
X140902442Y-131762997D02*
X141218547Y-131446892D01*
X142387776Y-132616121D01*
X142071671Y-132932226D01*
X140902442Y-131762997D01*
X140902442Y-131762997D01*
G37*
G36*
X140550416Y-132115023D02*
X140866521Y-131798918D01*
X142035750Y-132968147D01*
X141719645Y-133284252D01*
X140550416Y-132115023D01*
X140550416Y-132115023D01*
G37*
G36*
X140196594Y-132468845D02*
X140512699Y-132152740D01*
X141681928Y-133321969D01*
X141365823Y-133638074D01*
X140196594Y-132468845D01*
X140196594Y-132468845D01*
G37*
G36*
X139842772Y-132822667D02*
X140158877Y-132506562D01*
X141328106Y-133675791D01*
X141012001Y-133991896D01*
X139842772Y-132822667D01*
X139842772Y-132822667D01*
G37*
G36*
X139488950Y-133176489D02*
X139805055Y-132860384D01*
X140974284Y-134029613D01*
X140658179Y-134345718D01*
X139488950Y-133176489D01*
X139488950Y-133176489D01*
G37*
G36*
X139135128Y-133530312D02*
X139451233Y-133214207D01*
X140620462Y-134383436D01*
X140304357Y-134699541D01*
X139135128Y-133530312D01*
X139135128Y-133530312D01*
G37*
G36*
X138781306Y-133884134D02*
X139097411Y-133568029D01*
X140266640Y-134737258D01*
X139950535Y-135053363D01*
X138781306Y-133884134D01*
X138781306Y-133884134D01*
G37*
G36*
X138427484Y-134237956D02*
X138743589Y-133921851D01*
X139912818Y-135091080D01*
X139596713Y-135407185D01*
X138427484Y-134237956D01*
X138427484Y-134237956D01*
G37*
G36*
X138075458Y-134589982D02*
X138391563Y-134273877D01*
X139560792Y-135443106D01*
X139244687Y-135759211D01*
X138075458Y-134589982D01*
X138075458Y-134589982D01*
G37*
G36*
X137721635Y-134943804D02*
X138037740Y-134627699D01*
X139206969Y-135796928D01*
X138890864Y-136113033D01*
X137721635Y-134943804D01*
X137721635Y-134943804D01*
G37*
G36*
X137367813Y-135297626D02*
X137683918Y-134981521D01*
X138853147Y-136150750D01*
X138537042Y-136466855D01*
X137367813Y-135297626D01*
X137367813Y-135297626D01*
G37*
G36*
X137013991Y-135651448D02*
X137330096Y-135335343D01*
X138499325Y-136504572D01*
X138183220Y-136820677D01*
X137013991Y-135651448D01*
X137013991Y-135651448D01*
G37*
G36*
X136660169Y-136005270D02*
X136976274Y-135689165D01*
X138145503Y-136858394D01*
X137829398Y-137174499D01*
X136660169Y-136005270D01*
X136660169Y-136005270D01*
G37*
G36*
X136306347Y-136359092D02*
X136622452Y-136042987D01*
X137791681Y-137212216D01*
X137475576Y-137528321D01*
X136306347Y-136359092D01*
X136306347Y-136359092D01*
G37*
G36*
X135954321Y-136711118D02*
X136270426Y-136395013D01*
X137439655Y-137564242D01*
X137123550Y-137880347D01*
X135954321Y-136711118D01*
X135954321Y-136711118D01*
G37*
G36*
X135600499Y-137064940D02*
X135916604Y-136748835D01*
X137085833Y-137918064D01*
X136769728Y-138234169D01*
X135600499Y-137064940D01*
X135600499Y-137064940D01*
G37*
G36*
X135246677Y-137418762D02*
X135562782Y-137102657D01*
X136732011Y-138271886D01*
X136415906Y-138587991D01*
X135246677Y-137418762D01*
X135246677Y-137418762D01*
G37*
G36*
X134892855Y-137772585D02*
X135208960Y-137456480D01*
X136378189Y-138625709D01*
X136062084Y-138941814D01*
X134892855Y-137772585D01*
X134892855Y-137772585D01*
G37*
G36*
X134539033Y-138126407D02*
X134855138Y-137810302D01*
X136024367Y-138979531D01*
X135708262Y-139295636D01*
X134539033Y-138126407D01*
X134539033Y-138126407D01*
G37*
G36*
X135708262Y-140992904D02*
X136024367Y-141309009D01*
X134855138Y-142478238D01*
X134539033Y-142162133D01*
X135708262Y-140992904D01*
X135708262Y-140992904D01*
G37*
G36*
X136062084Y-141346726D02*
X136378189Y-141662831D01*
X135208960Y-142832060D01*
X134892855Y-142515955D01*
X136062084Y-141346726D01*
X136062084Y-141346726D01*
G37*
G36*
X136415906Y-141700549D02*
X136732011Y-142016654D01*
X135562782Y-143185883D01*
X135246677Y-142869778D01*
X136415906Y-141700549D01*
X136415906Y-141700549D01*
G37*
G36*
X136769728Y-142054371D02*
X137085833Y-142370476D01*
X135916604Y-143539705D01*
X135600499Y-143223600D01*
X136769728Y-142054371D01*
X136769728Y-142054371D01*
G37*
G36*
X137123550Y-142408193D02*
X137439655Y-142724298D01*
X136270426Y-143893527D01*
X135954321Y-143577422D01*
X137123550Y-142408193D01*
X137123550Y-142408193D01*
G37*
G36*
X137475576Y-142760219D02*
X137791681Y-143076324D01*
X136622452Y-144245553D01*
X136306347Y-143929448D01*
X137475576Y-142760219D01*
X137475576Y-142760219D01*
G37*
G36*
X137829398Y-143114041D02*
X138145503Y-143430146D01*
X136976274Y-144599375D01*
X136660169Y-144283270D01*
X137829398Y-143114041D01*
X137829398Y-143114041D01*
G37*
G36*
X138183220Y-143467863D02*
X138499325Y-143783968D01*
X137330096Y-144953197D01*
X137013991Y-144637092D01*
X138183220Y-143467863D01*
X138183220Y-143467863D01*
G37*
G36*
X138537042Y-143821685D02*
X138853147Y-144137790D01*
X137683918Y-145307019D01*
X137367813Y-144990914D01*
X138537042Y-143821685D01*
X138537042Y-143821685D01*
G37*
G36*
X138890864Y-144175507D02*
X139206969Y-144491612D01*
X138037740Y-145660841D01*
X137721635Y-145344736D01*
X138890864Y-144175507D01*
X138890864Y-144175507D01*
G37*
G36*
X139244687Y-144529329D02*
X139560792Y-144845434D01*
X138391563Y-146014663D01*
X138075458Y-145698558D01*
X139244687Y-144529329D01*
X139244687Y-144529329D01*
G37*
G36*
X139596713Y-144881355D02*
X139912818Y-145197460D01*
X138743589Y-146366689D01*
X138427484Y-146050584D01*
X139596713Y-144881355D01*
X139596713Y-144881355D01*
G37*
G36*
X139950535Y-145235177D02*
X140266640Y-145551282D01*
X139097411Y-146720511D01*
X138781306Y-146404406D01*
X139950535Y-145235177D01*
X139950535Y-145235177D01*
G37*
G36*
X140304357Y-145588999D02*
X140620462Y-145905104D01*
X139451233Y-147074333D01*
X139135128Y-146758228D01*
X140304357Y-145588999D01*
X140304357Y-145588999D01*
G37*
G36*
X140658179Y-145942822D02*
X140974284Y-146258927D01*
X139805055Y-147428156D01*
X139488950Y-147112051D01*
X140658179Y-145942822D01*
X140658179Y-145942822D01*
G37*
G36*
X141012001Y-146296644D02*
X141328106Y-146612749D01*
X140158877Y-147781978D01*
X139842772Y-147465873D01*
X141012001Y-146296644D01*
X141012001Y-146296644D01*
G37*
G36*
X141365823Y-146650466D02*
X141681928Y-146966571D01*
X140512699Y-148135800D01*
X140196594Y-147819695D01*
X141365823Y-146650466D01*
X141365823Y-146650466D01*
G37*
G36*
X141719645Y-147004288D02*
X142035750Y-147320393D01*
X140866521Y-148489622D01*
X140550416Y-148173517D01*
X141719645Y-147004288D01*
X141719645Y-147004288D01*
G37*
G36*
X142071671Y-147356314D02*
X142387776Y-147672419D01*
X141218547Y-148841648D01*
X140902442Y-148525543D01*
X142071671Y-147356314D01*
X142071671Y-147356314D01*
G37*
G36*
X142425493Y-147710136D02*
X142741598Y-148026241D01*
X141572369Y-149195470D01*
X141256264Y-148879365D01*
X142425493Y-147710136D01*
X142425493Y-147710136D01*
G37*
G36*
X142779315Y-148063958D02*
X143095420Y-148380063D01*
X141926191Y-149549292D01*
X141610086Y-149233187D01*
X142779315Y-148063958D01*
X142779315Y-148063958D01*
G37*
G36*
X143133137Y-148417780D02*
X143449242Y-148733885D01*
X142280013Y-149903114D01*
X141963908Y-149587009D01*
X143133137Y-148417780D01*
X143133137Y-148417780D01*
G37*
G36*
X143486960Y-148771602D02*
X143803065Y-149087707D01*
X142633836Y-150256936D01*
X142317731Y-149940831D01*
X143486960Y-148771602D01*
X143486960Y-148771602D01*
G37*
G36*
X143840782Y-149125424D02*
X144156887Y-149441529D01*
X142987658Y-150610758D01*
X142671553Y-150294653D01*
X143840782Y-149125424D01*
X143840782Y-149125424D01*
G37*
G36*
X144194604Y-149479246D02*
X144510709Y-149795351D01*
X143341480Y-150964580D01*
X143025375Y-150648475D01*
X144194604Y-149479246D01*
X144194604Y-149479246D01*
G37*
G36*
X144546630Y-149831272D02*
X144862735Y-150147377D01*
X143693506Y-151316606D01*
X143377401Y-151000501D01*
X144546630Y-149831272D01*
X144546630Y-149831272D01*
G37*
G36*
X144900452Y-150185095D02*
X145216557Y-150501200D01*
X144047328Y-151670429D01*
X143731223Y-151354324D01*
X144900452Y-150185095D01*
X144900452Y-150185095D01*
G37*
G36*
X145254274Y-150538917D02*
X145570379Y-150855022D01*
X144401150Y-152024251D01*
X144085045Y-151708146D01*
X145254274Y-150538917D01*
X145254274Y-150538917D01*
G37*
G36*
X145608096Y-150892739D02*
X145924201Y-151208844D01*
X144754972Y-152378073D01*
X144438867Y-152061968D01*
X145608096Y-150892739D01*
X145608096Y-150892739D01*
G37*
G36*
X145961918Y-151246561D02*
X146278023Y-151562666D01*
X145108794Y-152731895D01*
X144792689Y-152415790D01*
X145961918Y-151246561D01*
X145961918Y-151246561D01*
G37*
G36*
X146315740Y-151600383D02*
X146631845Y-151916488D01*
X145462616Y-153085717D01*
X145146511Y-152769612D01*
X146315740Y-151600383D01*
X146315740Y-151600383D01*
G37*
G36*
X146667766Y-151952409D02*
X146983871Y-152268514D01*
X145814642Y-153437743D01*
X145498537Y-153121638D01*
X146667766Y-151952409D01*
X146667766Y-151952409D01*
G37*
G36*
X147021588Y-152306231D02*
X147337693Y-152622336D01*
X146168464Y-153791565D01*
X145852359Y-153475460D01*
X147021588Y-152306231D01*
X147021588Y-152306231D01*
G37*
G36*
X147375410Y-152660053D02*
X147691515Y-152976158D01*
X146522286Y-154145387D01*
X146206181Y-153829282D01*
X147375410Y-152660053D01*
X147375410Y-152660053D01*
G37*
G36*
X147729233Y-153013875D02*
X148045338Y-153329980D01*
X146876109Y-154499209D01*
X146560004Y-154183104D01*
X147729233Y-153013875D01*
X147729233Y-153013875D01*
G37*
G36*
X148083055Y-153367697D02*
X148399160Y-153683802D01*
X147229931Y-154853031D01*
X146913826Y-154536926D01*
X148083055Y-153367697D01*
X148083055Y-153367697D01*
G37*
G36*
X150096428Y-153683802D02*
X150412533Y-153367697D01*
X151581762Y-154536926D01*
X151265657Y-154853031D01*
X150096428Y-153683802D01*
X150096428Y-153683802D01*
G37*
G36*
X150450250Y-153329980D02*
X150766355Y-153013875D01*
X151935584Y-154183104D01*
X151619479Y-154499209D01*
X150450250Y-153329980D01*
X150450250Y-153329980D01*
G37*
G36*
X150804073Y-152976158D02*
X151120178Y-152660053D01*
X152289407Y-153829282D01*
X151973302Y-154145387D01*
X150804073Y-152976158D01*
X150804073Y-152976158D01*
G37*
G36*
X151157895Y-152622336D02*
X151474000Y-152306231D01*
X152643229Y-153475460D01*
X152327124Y-153791565D01*
X151157895Y-152622336D01*
X151157895Y-152622336D01*
G37*
G36*
X151511717Y-152268514D02*
X151827822Y-151952409D01*
X152997051Y-153121638D01*
X152680946Y-153437743D01*
X151511717Y-152268514D01*
X151511717Y-152268514D01*
G37*
G36*
X151863743Y-151916488D02*
X152179848Y-151600383D01*
X153349077Y-152769612D01*
X153032972Y-153085717D01*
X151863743Y-151916488D01*
X151863743Y-151916488D01*
G37*
G36*
X152217565Y-151562666D02*
X152533670Y-151246561D01*
X153702899Y-152415790D01*
X153386794Y-152731895D01*
X152217565Y-151562666D01*
X152217565Y-151562666D01*
G37*
G36*
X152571387Y-151208844D02*
X152887492Y-150892739D01*
X154056721Y-152061968D01*
X153740616Y-152378073D01*
X152571387Y-151208844D01*
X152571387Y-151208844D01*
G37*
G36*
X152925209Y-150855022D02*
X153241314Y-150538917D01*
X154410543Y-151708146D01*
X154094438Y-152024251D01*
X152925209Y-150855022D01*
X152925209Y-150855022D01*
G37*
G36*
X153279031Y-150501200D02*
X153595136Y-150185095D01*
X154764365Y-151354324D01*
X154448260Y-151670429D01*
X153279031Y-150501200D01*
X153279031Y-150501200D01*
G37*
G36*
X153632853Y-150147377D02*
X153948958Y-149831272D01*
X155118187Y-151000501D01*
X154802082Y-151316606D01*
X153632853Y-150147377D01*
X153632853Y-150147377D01*
G37*
G36*
X153984879Y-149795351D02*
X154300984Y-149479246D01*
X155470213Y-150648475D01*
X155154108Y-150964580D01*
X153984879Y-149795351D01*
X153984879Y-149795351D01*
G37*
G36*
X154338701Y-149441529D02*
X154654806Y-149125424D01*
X155824035Y-150294653D01*
X155507930Y-150610758D01*
X154338701Y-149441529D01*
X154338701Y-149441529D01*
G37*
G36*
X154692523Y-149087707D02*
X155008628Y-148771602D01*
X156177857Y-149940831D01*
X155861752Y-150256936D01*
X154692523Y-149087707D01*
X154692523Y-149087707D01*
G37*
G36*
X155046346Y-148733885D02*
X155362451Y-148417780D01*
X156531680Y-149587009D01*
X156215575Y-149903114D01*
X155046346Y-148733885D01*
X155046346Y-148733885D01*
G37*
G36*
X155400168Y-148380063D02*
X155716273Y-148063958D01*
X156885502Y-149233187D01*
X156569397Y-149549292D01*
X155400168Y-148380063D01*
X155400168Y-148380063D01*
G37*
G36*
X155753990Y-148026241D02*
X156070095Y-147710136D01*
X157239324Y-148879365D01*
X156923219Y-149195470D01*
X155753990Y-148026241D01*
X155753990Y-148026241D01*
G37*
G36*
X156107812Y-147672419D02*
X156423917Y-147356314D01*
X157593146Y-148525543D01*
X157277041Y-148841648D01*
X156107812Y-147672419D01*
X156107812Y-147672419D01*
G37*
G36*
X156459838Y-147320393D02*
X156775943Y-147004288D01*
X157945172Y-148173517D01*
X157629067Y-148489622D01*
X156459838Y-147320393D01*
X156459838Y-147320393D01*
G37*
G36*
X156813660Y-146966571D02*
X157129765Y-146650466D01*
X158298994Y-147819695D01*
X157982889Y-148135800D01*
X156813660Y-146966571D01*
X156813660Y-146966571D01*
G37*
G36*
X157167482Y-146612749D02*
X157483587Y-146296644D01*
X158652816Y-147465873D01*
X158336711Y-147781978D01*
X157167482Y-146612749D01*
X157167482Y-146612749D01*
G37*
G36*
X157521304Y-146258927D02*
X157837409Y-145942822D01*
X159006638Y-147112051D01*
X158690533Y-147428156D01*
X157521304Y-146258927D01*
X157521304Y-146258927D01*
G37*
G36*
X157875126Y-145905104D02*
X158191231Y-145588999D01*
X159360460Y-146758228D01*
X159044355Y-147074333D01*
X157875126Y-145905104D01*
X157875126Y-145905104D01*
G37*
G36*
X158228948Y-145551282D02*
X158545053Y-145235177D01*
X159714282Y-146404406D01*
X159398177Y-146720511D01*
X158228948Y-145551282D01*
X158228948Y-145551282D01*
G37*
G36*
X158582770Y-145197460D02*
X158898875Y-144881355D01*
X160068104Y-146050584D01*
X159751999Y-146366689D01*
X158582770Y-145197460D01*
X158582770Y-145197460D01*
G37*
G36*
X158934796Y-144845434D02*
X159250901Y-144529329D01*
X160420130Y-145698558D01*
X160104025Y-146014663D01*
X158934796Y-144845434D01*
X158934796Y-144845434D01*
G37*
G36*
X159288619Y-144491612D02*
X159604724Y-144175507D01*
X160773953Y-145344736D01*
X160457848Y-145660841D01*
X159288619Y-144491612D01*
X159288619Y-144491612D01*
G37*
G36*
X159642441Y-144137790D02*
X159958546Y-143821685D01*
X161127775Y-144990914D01*
X160811670Y-145307019D01*
X159642441Y-144137790D01*
X159642441Y-144137790D01*
G37*
G36*
X159996263Y-143783968D02*
X160312368Y-143467863D01*
X161481597Y-144637092D01*
X161165492Y-144953197D01*
X159996263Y-143783968D01*
X159996263Y-143783968D01*
G37*
G36*
X160350085Y-143430146D02*
X160666190Y-143114041D01*
X161835419Y-144283270D01*
X161519314Y-144599375D01*
X160350085Y-143430146D01*
X160350085Y-143430146D01*
G37*
G36*
X160703907Y-143076324D02*
X161020012Y-142760219D01*
X162189241Y-143929448D01*
X161873136Y-144245553D01*
X160703907Y-143076324D01*
X160703907Y-143076324D01*
G37*
G36*
X161055933Y-142724298D02*
X161372038Y-142408193D01*
X162541267Y-143577422D01*
X162225162Y-143893527D01*
X161055933Y-142724298D01*
X161055933Y-142724298D01*
G37*
G36*
X161409755Y-142370476D02*
X161725860Y-142054371D01*
X162895089Y-143223600D01*
X162578984Y-143539705D01*
X161409755Y-142370476D01*
X161409755Y-142370476D01*
G37*
G36*
X161763577Y-142016654D02*
X162079682Y-141700549D01*
X163248911Y-142869778D01*
X162932806Y-143185883D01*
X161763577Y-142016654D01*
X161763577Y-142016654D01*
G37*
G36*
X162117399Y-141662831D02*
X162433504Y-141346726D01*
X163602733Y-142515955D01*
X163286628Y-142832060D01*
X162117399Y-141662831D01*
X162117399Y-141662831D01*
G37*
G36*
X162471221Y-141309009D02*
X162787326Y-140992904D01*
X163956555Y-142162133D01*
X163640450Y-142478238D01*
X162471221Y-141309009D01*
X162471221Y-141309009D01*
G37*
D11*
X72512600Y-160067600D03*
X72912600Y-160067600D03*
X73312600Y-160067600D03*
X73712600Y-160067600D03*
X73712600Y-158167600D03*
X73312600Y-158167600D03*
X72912600Y-158167600D03*
X72512600Y-158167600D03*
D12*
X73112600Y-159117600D03*
D13*
X73112600Y-158867600D03*
D14*
X73112600Y-159117600D03*
D15*
X73162600Y-159367600D03*
D10*
G36*
X72612389Y-159576153D02*
X72404047Y-159367811D01*
X72632811Y-159139047D01*
X72841153Y-159347389D01*
X72612389Y-159576153D01*
X72612389Y-159576153D01*
G37*
D16*
X72687600Y-159367600D03*
D17*
X173030000Y-155950000D03*
D18*
X170490000Y-155950000D03*
X173030000Y-153410000D03*
X170490000Y-153410000D03*
X173030000Y-150870000D03*
X170490000Y-150870000D03*
X173030000Y-148330000D03*
X170490000Y-148330000D03*
X173030000Y-145790000D03*
X170490000Y-145790000D03*
X173030000Y-143250000D03*
X170490000Y-143250000D03*
X173030000Y-140710000D03*
X170490000Y-140710000D03*
X173030000Y-138170000D03*
X170490000Y-138170000D03*
X173030000Y-135630000D03*
X170490000Y-135630000D03*
X173030000Y-133090000D03*
X170490000Y-133090000D03*
X173030000Y-130550000D03*
X170490000Y-130550000D03*
D19*
X62700000Y-122150000D03*
X62700000Y-126650000D03*
D20*
X65190000Y-127905000D03*
X65190000Y-120895000D03*
D21*
X100145400Y-115911800D03*
X100645400Y-115911800D03*
X101145400Y-115911800D03*
X101645400Y-115911800D03*
X102145400Y-115911800D03*
X102645400Y-115911800D03*
X103145400Y-115911800D03*
X103645400Y-115911800D03*
X104145400Y-115911800D03*
X104645400Y-115911800D03*
X105145400Y-115911800D03*
X105645400Y-115911800D03*
D22*
X106345400Y-115211800D03*
X106345400Y-114711800D03*
X106345400Y-114211800D03*
X106345400Y-113711800D03*
X106345400Y-113211800D03*
X106345400Y-112711800D03*
X106345400Y-112211800D03*
X106345400Y-111711800D03*
X106345400Y-111211800D03*
X106345400Y-110711800D03*
X106345400Y-110211800D03*
X106345400Y-109711800D03*
D21*
X105645400Y-109011800D03*
X105145400Y-109011800D03*
X104645400Y-109011800D03*
X104145400Y-109011800D03*
X103645400Y-109011800D03*
X103145400Y-109011800D03*
X102645400Y-109011800D03*
X102145400Y-109011800D03*
X101645400Y-109011800D03*
X101145400Y-109011800D03*
X100645400Y-109011800D03*
X100145400Y-109011800D03*
D22*
X99445400Y-109711800D03*
X99445400Y-110211800D03*
X99445400Y-110711800D03*
X99445400Y-111211800D03*
X99445400Y-111711800D03*
X99445400Y-112211800D03*
X99445400Y-112711800D03*
X99445400Y-113211800D03*
X99445400Y-113711800D03*
X99445400Y-114211800D03*
X99445400Y-114711800D03*
X99445400Y-115211800D03*
D23*
X102895400Y-112461800D03*
D24*
X106448500Y-144897100D03*
X106848500Y-144897100D03*
X107248500Y-144897100D03*
X107648500Y-144897100D03*
X108048500Y-144897100D03*
X108448500Y-144897100D03*
X108848500Y-144897100D03*
X109248500Y-144897100D03*
X109648500Y-144897100D03*
X110048500Y-144897100D03*
X110448500Y-144897100D03*
X110848500Y-144897100D03*
D25*
X111648500Y-144097100D03*
X111648500Y-143697100D03*
X111648500Y-143297100D03*
X111648500Y-142897100D03*
X111648500Y-142497100D03*
X111648500Y-142097100D03*
X111648500Y-141697100D03*
X111648500Y-141297100D03*
X111648500Y-140897100D03*
X111648500Y-140497100D03*
X111648500Y-140097100D03*
X111648500Y-139697100D03*
D24*
X110848500Y-138897100D03*
X110448500Y-138897100D03*
X110048500Y-138897100D03*
X109648500Y-138897100D03*
X109248500Y-138897100D03*
X108848500Y-138897100D03*
X108448500Y-138897100D03*
X108048500Y-138897100D03*
X107648500Y-138897100D03*
X107248500Y-138897100D03*
X106848500Y-138897100D03*
X106448500Y-138897100D03*
D25*
X105648500Y-139697100D03*
X105648500Y-140097100D03*
X105648500Y-140497100D03*
X105648500Y-140897100D03*
X105648500Y-141297100D03*
X105648500Y-141697100D03*
X105648500Y-142097100D03*
X105648500Y-142497100D03*
X105648500Y-142897100D03*
X105648500Y-143297100D03*
X105648500Y-143697100D03*
X105648500Y-144097100D03*
D26*
X108648500Y-141897100D03*
D27*
X133350000Y-165100000D03*
D28*
X78105700Y-166406800D03*
X76327700Y-166406800D03*
X77216700Y-164374800D03*
X71487000Y-149364000D03*
X73265000Y-149364000D03*
X72376000Y-151396000D03*
D10*
G36*
X162866353Y-134719297D02*
X161910854Y-133763798D01*
X163008241Y-132666411D01*
X163963740Y-133621910D01*
X162866353Y-134719297D01*
X162866353Y-134719297D01*
G37*
G36*
X163290221Y-132032405D02*
X162334722Y-131076906D01*
X163432109Y-129979519D01*
X164387608Y-130935018D01*
X163290221Y-132032405D01*
X163290221Y-132032405D01*
G37*
G36*
X164421733Y-133163917D02*
X163466234Y-132208418D01*
X164563621Y-131111031D01*
X165519120Y-132066530D01*
X164421733Y-133163917D01*
X164421733Y-133163917D01*
G37*
G36*
X161734841Y-133587785D02*
X160779342Y-132632286D01*
X161876729Y-131534899D01*
X162832228Y-132490398D01*
X161734841Y-133587785D01*
X161734841Y-133587785D01*
G37*
D29*
X125475300Y-169867820D03*
X123875100Y-167668180D03*
X125475300Y-167668180D03*
X123875100Y-169867820D03*
D30*
X132745480Y-109016800D03*
X132245100Y-109016800D03*
X131747260Y-109016800D03*
X131246880Y-109016800D03*
X130746500Y-109016800D03*
X130246120Y-109016800D03*
X129745740Y-109016800D03*
X129245360Y-109016800D03*
X128744980Y-109016800D03*
X128247140Y-109016800D03*
X127746760Y-109016800D03*
X127246380Y-109016800D03*
X126746000Y-109016800D03*
X126245620Y-109016800D03*
X125745240Y-109016800D03*
X125244860Y-109016800D03*
X124747020Y-109016800D03*
X124246640Y-109016800D03*
X123746260Y-109016800D03*
X123245880Y-109016800D03*
X122745500Y-109016800D03*
X122245120Y-109016800D03*
X121744740Y-109016800D03*
X121246900Y-109016800D03*
X120746520Y-109016800D03*
D31*
X118745000Y-111018320D03*
X118745000Y-111518700D03*
X118745000Y-112016540D03*
X118745000Y-112516920D03*
X118745000Y-113017300D03*
X118745000Y-113517680D03*
X118745000Y-114018060D03*
X118745000Y-114518440D03*
X118745000Y-115018820D03*
X118745000Y-115516660D03*
X118745000Y-116017040D03*
X118745000Y-116517420D03*
X118745000Y-117017800D03*
X118745000Y-117518180D03*
X118745000Y-118018560D03*
X118745000Y-118518940D03*
X118745000Y-119016780D03*
X118745000Y-119517160D03*
X118745000Y-120017540D03*
X118745000Y-120517920D03*
X118745000Y-121018300D03*
X118745000Y-121518680D03*
X118745000Y-122019060D03*
X118745000Y-122516900D03*
X118745000Y-123017280D03*
D30*
X120746520Y-125018800D03*
X121246900Y-125018800D03*
X121744740Y-125018800D03*
X122245120Y-125018800D03*
X122745500Y-125018800D03*
X123245880Y-125018800D03*
X123746260Y-125018800D03*
X124246640Y-125018800D03*
X124747020Y-125018800D03*
X125244860Y-125018800D03*
X125745240Y-125018800D03*
X126245620Y-125018800D03*
X126746000Y-125018800D03*
X127246380Y-125018800D03*
X127746760Y-125018800D03*
X128247140Y-125018800D03*
X128744980Y-125018800D03*
X129245360Y-125018800D03*
X129745740Y-125018800D03*
X130246120Y-125018800D03*
X130746500Y-125018800D03*
X131246880Y-125018800D03*
X131747260Y-125018800D03*
X132245100Y-125018800D03*
X132745480Y-125018800D03*
D31*
X134747000Y-123017280D03*
X134747000Y-122516900D03*
X134747000Y-122019060D03*
X134747000Y-121518680D03*
X134747000Y-121018300D03*
X134747000Y-120517920D03*
X134747000Y-120017540D03*
X134747000Y-119517160D03*
X134747000Y-119016780D03*
X134747000Y-118518940D03*
X134747000Y-118018560D03*
X134747000Y-117518180D03*
X134747000Y-117017800D03*
X134747000Y-116517420D03*
X134747000Y-116017040D03*
X134747000Y-115516660D03*
X134747000Y-115018820D03*
X134747000Y-114518440D03*
X134747000Y-114018060D03*
X134747000Y-113517680D03*
X134747000Y-113017300D03*
X134747000Y-112516920D03*
X134747000Y-112016540D03*
X134747000Y-111518700D03*
X134747000Y-111018320D03*
D32*
X164566600Y-160553400D03*
X164566600Y-159283400D03*
X164566600Y-158013400D03*
X164566600Y-156743400D03*
X156946600Y-156743400D03*
X156946600Y-158013400D03*
X156946600Y-159283400D03*
X156946600Y-160553400D03*
D33*
X165212000Y-106741660D03*
X165212000Y-109540740D03*
X165212000Y-114361660D03*
X165212000Y-117160740D03*
D34*
X80405960Y-143304720D03*
X81655640Y-143304720D03*
X81655640Y-142603680D03*
X80405960Y-142603680D03*
D35*
X81500700Y-137874200D03*
X79798900Y-137874200D03*
D36*
X80649800Y-138323780D03*
X80649800Y-137424620D03*
D17*
X137470000Y-158490000D03*
D18*
X140010000Y-158490000D03*
X142550000Y-158490000D03*
X145090000Y-158490000D03*
X147630000Y-158490000D03*
X150170000Y-158490000D03*
D37*
X107929680Y-152049480D03*
X107929680Y-151549100D03*
X107929680Y-151048720D03*
X107081320Y-151048720D03*
X107081320Y-151549100D03*
X107081320Y-152049480D03*
X110977680Y-152049480D03*
X110977680Y-151549100D03*
X110977680Y-151048720D03*
X110129320Y-151048720D03*
X110129320Y-151549100D03*
X110129320Y-152049480D03*
D28*
X98691000Y-155985600D03*
X98691000Y-157509600D03*
X73900000Y-152920000D03*
X72376000Y-152920000D03*
X98691000Y-160557600D03*
X98691000Y-159033600D03*
X77329000Y-160159000D03*
X77329000Y-161683000D03*
D38*
X140289400Y-126232000D03*
X139222600Y-126232000D03*
X172933600Y-115761200D03*
X174000400Y-115761200D03*
X172933600Y-116777200D03*
X174000400Y-116777200D03*
X164749600Y-150235000D03*
X165816400Y-150235000D03*
D39*
X67874000Y-111525400D03*
X67874000Y-110458600D03*
D38*
X159390200Y-119348600D03*
X160457000Y-119348600D03*
D39*
X177150000Y-108242800D03*
X177150000Y-109309600D03*
D38*
X163967400Y-111951200D03*
X162900600Y-111951200D03*
D39*
X97167000Y-150626200D03*
X97167000Y-151693000D03*
D38*
X172933600Y-109411200D03*
X174000400Y-109411200D03*
D39*
X96215200Y-122469400D03*
X96215200Y-121402600D03*
D38*
X102514400Y-156794200D03*
X103581200Y-156794200D03*
D39*
X98310000Y-151388200D03*
X98310000Y-152455000D03*
X100113400Y-163605600D03*
X100113400Y-164672400D03*
D38*
X101904800Y-168808400D03*
X102971600Y-168808400D03*
D39*
X89064400Y-153217000D03*
X89064400Y-152150200D03*
D38*
X89166000Y-149635600D03*
X90232800Y-149635600D03*
D39*
X91350400Y-152150200D03*
X91350400Y-153217000D03*
X94373000Y-152861400D03*
X94373000Y-151794600D03*
D10*
G36*
X138215316Y-131326132D02*
X138754132Y-130787316D01*
X139257026Y-131290210D01*
X138718210Y-131829026D01*
X138215316Y-131326132D01*
X138215316Y-131326132D01*
G37*
G36*
X137460974Y-130571790D02*
X137999790Y-130032974D01*
X138502684Y-130535868D01*
X137963868Y-131074684D01*
X137460974Y-130571790D01*
X137460974Y-130571790D01*
G37*
G36*
X138977316Y-130564132D02*
X139516132Y-130025316D01*
X140019026Y-130528210D01*
X139480210Y-131067026D01*
X138977316Y-130564132D01*
X138977316Y-130564132D01*
G37*
G36*
X138222974Y-129809790D02*
X138761790Y-129270974D01*
X139264684Y-129773868D01*
X138725868Y-130312684D01*
X138222974Y-129809790D01*
X138222974Y-129809790D01*
G37*
D39*
X91821000Y-122469400D03*
X91821000Y-121402600D03*
X93091000Y-122469400D03*
X93091000Y-121402600D03*
X94945200Y-122469400D03*
X94945200Y-121402600D03*
D38*
X145496400Y-123387200D03*
X146563200Y-123387200D03*
D39*
X167162600Y-130448400D03*
X167162600Y-131515200D03*
D38*
X73366600Y-147967000D03*
X74433400Y-147967000D03*
D39*
X96215200Y-125517400D03*
X96215200Y-124450600D03*
X94945200Y-125517400D03*
X94945200Y-124450600D03*
X93091000Y-125517400D03*
X93091000Y-124450600D03*
X91821000Y-125517400D03*
X91821000Y-124450600D03*
X100012500Y-125758700D03*
X100012500Y-124691900D03*
X101282500Y-125758700D03*
X101282500Y-124691900D03*
X103136700Y-125758700D03*
X103136700Y-124691900D03*
X104406700Y-125758700D03*
X104406700Y-124691900D03*
D38*
X75159300Y-168819800D03*
X76226100Y-168819800D03*
X115785900Y-138849100D03*
X114719100Y-138849100D03*
X115785900Y-137833100D03*
X114719100Y-137833100D03*
X134701400Y-161309400D03*
X133634600Y-161309400D03*
X133964800Y-158185200D03*
X132898000Y-158185200D03*
X83469200Y-138890200D03*
X82402400Y-138890200D03*
D39*
X77093800Y-142801800D03*
X77093800Y-143868600D03*
D38*
X88341200Y-141528800D03*
X87274400Y-141528800D03*
X101904800Y-165379400D03*
X102971600Y-165379400D03*
X96506600Y-166272600D03*
X95439800Y-166272600D03*
D39*
X101269800Y-150647400D03*
X101269800Y-151714200D03*
X92679800Y-144015000D03*
X92679800Y-142948200D03*
D38*
X97725800Y-163732600D03*
X96659000Y-163732600D03*
X78338400Y-138890200D03*
X79405200Y-138890200D03*
X79405200Y-141938200D03*
X78338400Y-141938200D03*
X97725800Y-164875600D03*
X96659000Y-164875600D03*
X74884000Y-138712400D03*
X75950800Y-138712400D03*
D39*
X84713800Y-136959800D03*
X84713800Y-138026600D03*
X75595200Y-141912800D03*
X75595200Y-142979600D03*
X131787200Y-164678600D03*
X131787200Y-165745400D03*
D38*
X127570800Y-168006000D03*
X128637600Y-168006000D03*
D39*
X126675000Y-127984600D03*
X126675000Y-129051400D03*
X127691000Y-127984600D03*
X127691000Y-129051400D03*
D38*
X88514200Y-143481600D03*
X87447400Y-143481600D03*
D39*
X90080400Y-163580200D03*
X90080400Y-162513400D03*
X93128400Y-163580200D03*
X93128400Y-162513400D03*
X92112400Y-163580200D03*
X92112400Y-162513400D03*
X92341000Y-151794600D03*
X92341000Y-152861400D03*
X93357000Y-151794600D03*
X93357000Y-152861400D03*
D38*
X106550600Y-168576200D03*
X107617400Y-168576200D03*
D39*
X113919000Y-155981400D03*
X113919000Y-154914600D03*
X85400000Y-148634800D03*
X85400000Y-149701600D03*
X128707000Y-127984600D03*
X128707000Y-129051400D03*
X84713800Y-142928800D03*
X84713800Y-143995600D03*
X87794400Y-154360000D03*
X87794400Y-153293200D03*
D38*
X88023000Y-150905600D03*
X89089800Y-150905600D03*
D39*
X90334400Y-152150200D03*
X90334400Y-153217000D03*
D38*
X91375800Y-150905600D03*
X90309000Y-150905600D03*
D39*
X106499800Y-163623200D03*
X106499800Y-164690000D03*
D38*
X83469200Y-141938200D03*
X82402400Y-141938200D03*
X139222600Y-123692000D03*
X140289400Y-123692000D03*
X63581400Y-116707000D03*
X62514600Y-116707000D03*
X63835400Y-147060000D03*
X62768600Y-147060000D03*
X63835400Y-142488000D03*
X62768600Y-142488000D03*
X63835400Y-137916000D03*
X62768600Y-137916000D03*
D10*
G36*
X158515419Y-128541779D02*
X157976603Y-128002963D01*
X158479497Y-127500069D01*
X159018313Y-128038885D01*
X158515419Y-128541779D01*
X158515419Y-128541779D01*
G37*
G36*
X157761077Y-129296121D02*
X157222261Y-128757305D01*
X157725155Y-128254411D01*
X158263971Y-128793227D01*
X157761077Y-129296121D01*
X157761077Y-129296121D01*
G37*
D38*
X139222600Y-124962000D03*
X140289400Y-124962000D03*
X63835400Y-129407000D03*
X62768600Y-129407000D03*
X156316800Y-116808600D03*
X157383600Y-116808600D03*
D39*
X155046800Y-120593200D03*
X155046800Y-121660000D03*
X156189800Y-120567800D03*
X156189800Y-119501000D03*
D38*
X140492600Y-156381800D03*
X141559400Y-156381800D03*
X139801600Y-119811800D03*
X140868400Y-119811800D03*
D39*
X129768600Y-127965200D03*
X129768600Y-129032000D03*
D38*
X140492600Y-155188000D03*
X141559400Y-155188000D03*
D39*
X130784600Y-127965200D03*
X130784600Y-129032000D03*
X131800600Y-127965200D03*
X131800600Y-129032000D03*
X132816600Y-127965200D03*
X132816600Y-129032000D03*
X134345800Y-127933800D03*
X134345800Y-129000600D03*
D38*
X139801600Y-120827800D03*
X140868400Y-120827800D03*
X172933600Y-108395200D03*
X174000400Y-108395200D03*
X139801600Y-118795800D03*
X140868400Y-118795800D03*
X139801600Y-117779800D03*
X140868400Y-117779800D03*
X139801600Y-116763800D03*
X140868400Y-116763800D03*
X139801600Y-115747800D03*
X140868400Y-115747800D03*
X139801600Y-114731800D03*
X140868400Y-114731800D03*
X121493400Y-162706400D03*
X122560200Y-162706400D03*
X104305100Y-123701300D03*
X103238300Y-123701300D03*
D39*
X110045500Y-149034500D03*
X110045500Y-147967700D03*
X111950500Y-135775700D03*
X111950500Y-136842500D03*
X104470200Y-121631200D03*
X104470200Y-122698000D03*
X103200200Y-121631200D03*
X103200200Y-122698000D03*
X101346000Y-121631200D03*
X101346000Y-122698000D03*
X100076000Y-121631200D03*
X100076000Y-122698000D03*
X111061500Y-149034500D03*
X111061500Y-147967700D03*
X113728500Y-138874500D03*
X113728500Y-137807700D03*
X123151200Y-165999400D03*
X123151200Y-164932600D03*
X116776500Y-138874500D03*
X116776500Y-137807700D03*
D38*
X122280800Y-161614200D03*
X123347600Y-161614200D03*
X120325000Y-160547400D03*
X121391800Y-160547400D03*
D39*
X129247200Y-157947600D03*
X129247200Y-159014400D03*
X131628000Y-160090200D03*
X131628000Y-161157000D03*
X108013500Y-149034500D03*
X108013500Y-147967700D03*
D38*
X125303400Y-158312200D03*
X126370200Y-158312200D03*
X109524800Y-113058700D03*
X108458000Y-113058700D03*
X109524800Y-112042700D03*
X108458000Y-112042700D03*
X172933600Y-117793200D03*
X174000400Y-117793200D03*
D10*
G36*
X150989964Y-122884217D02*
X150451148Y-123423033D01*
X149948254Y-122920139D01*
X150487070Y-122381323D01*
X150989964Y-122884217D01*
X150989964Y-122884217D01*
G37*
G36*
X151744306Y-123638559D02*
X151205490Y-124177375D01*
X150702596Y-123674481D01*
X151241412Y-123135665D01*
X151744306Y-123638559D01*
X151744306Y-123638559D01*
G37*
G36*
X144075166Y-124949676D02*
X143536350Y-125488492D01*
X143033456Y-124985598D01*
X143572272Y-124446782D01*
X144075166Y-124949676D01*
X144075166Y-124949676D01*
G37*
G36*
X144829508Y-125704018D02*
X144290692Y-126242834D01*
X143787798Y-125739940D01*
X144326614Y-125201124D01*
X144829508Y-125704018D01*
X144829508Y-125704018D01*
G37*
G36*
X137699185Y-131325658D02*
X137160369Y-131864474D01*
X136657475Y-131361580D01*
X137196291Y-130822764D01*
X137699185Y-131325658D01*
X137699185Y-131325658D01*
G37*
G36*
X138453527Y-132080000D02*
X137914711Y-132618816D01*
X137411817Y-132115922D01*
X137950633Y-131577106D01*
X138453527Y-132080000D01*
X138453527Y-132080000D01*
G37*
D38*
X132364600Y-137001600D03*
X133431400Y-137001600D03*
D10*
G36*
X134103068Y-145570116D02*
X134641884Y-146108932D01*
X134138990Y-146611826D01*
X133600174Y-146073010D01*
X134103068Y-145570116D01*
X134103068Y-145570116D01*
G37*
G36*
X134857410Y-144815774D02*
X135396226Y-145354590D01*
X134893332Y-145857484D01*
X134354516Y-145318668D01*
X134857410Y-144815774D01*
X134857410Y-144815774D01*
G37*
G36*
X140034051Y-151333669D02*
X140572867Y-151872485D01*
X140069973Y-152375379D01*
X139531157Y-151836563D01*
X140034051Y-151333669D01*
X140034051Y-151333669D01*
G37*
G36*
X140788393Y-150579327D02*
X141327209Y-151118143D01*
X140824315Y-151621037D01*
X140285499Y-151082221D01*
X140788393Y-150579327D01*
X140788393Y-150579327D01*
G37*
G36*
X144613981Y-155913600D02*
X145152797Y-156452416D01*
X144649903Y-156955310D01*
X144111087Y-156416494D01*
X144613981Y-155913600D01*
X144613981Y-155913600D01*
G37*
G36*
X145368323Y-155159258D02*
X145907139Y-155698074D01*
X145404245Y-156200968D01*
X144865429Y-155662152D01*
X145368323Y-155159258D01*
X145368323Y-155159258D01*
G37*
G36*
X153666080Y-156093206D02*
X154204896Y-155554390D01*
X154707790Y-156057284D01*
X154168974Y-156596100D01*
X153666080Y-156093206D01*
X153666080Y-156093206D01*
G37*
G36*
X152911738Y-155338864D02*
X153450554Y-154800048D01*
X153953448Y-155302942D01*
X153414632Y-155841758D01*
X152911738Y-155338864D01*
X152911738Y-155338864D01*
G37*
G36*
X159323641Y-150435644D02*
X159862457Y-149896828D01*
X160365351Y-150399722D01*
X159826535Y-150938538D01*
X159323641Y-150435644D01*
X159323641Y-150435644D01*
G37*
G36*
X158569299Y-149681302D02*
X159108115Y-149142486D01*
X159611009Y-149645380D01*
X159072193Y-150184196D01*
X158569299Y-149681302D01*
X158569299Y-149681302D01*
G37*
G36*
X160760482Y-148998803D02*
X161299298Y-148459987D01*
X161802192Y-148962881D01*
X161263376Y-149501697D01*
X160760482Y-148998803D01*
X160760482Y-148998803D01*
G37*
G36*
X160006140Y-148244461D02*
X160544956Y-147705645D01*
X161047850Y-148208539D01*
X160509034Y-148747355D01*
X160006140Y-148244461D01*
X160006140Y-148244461D01*
G37*
G36*
X162825941Y-146933344D02*
X163364757Y-146394528D01*
X163867651Y-146897422D01*
X163328835Y-147436238D01*
X162825941Y-146933344D01*
X162825941Y-146933344D01*
G37*
G36*
X162071599Y-146179002D02*
X162610415Y-145640186D01*
X163113309Y-146143080D01*
X162574493Y-146681896D01*
X162071599Y-146179002D01*
X162071599Y-146179002D01*
G37*
D39*
X113728500Y-145732500D03*
X113728500Y-144665700D03*
X100482400Y-119091200D03*
X100482400Y-118024400D03*
X99466400Y-119091200D03*
X99466400Y-118024400D03*
X103403400Y-119091200D03*
X103403400Y-118024400D03*
X102387400Y-119091200D03*
X102387400Y-118024400D03*
X105435400Y-119091200D03*
X105435400Y-118024400D03*
X106451400Y-119091200D03*
X106451400Y-118024400D03*
X101625400Y-105832400D03*
X101625400Y-106899200D03*
X100609400Y-105832400D03*
X100609400Y-106899200D03*
D38*
X96202500Y-110493300D03*
X97269300Y-110493300D03*
D39*
X97243900Y-108308900D03*
X97243900Y-109375700D03*
D38*
X95567500Y-113160300D03*
X96634300Y-113160300D03*
X95567500Y-112144300D03*
X96634300Y-112144300D03*
X95821500Y-115319300D03*
X96888300Y-115319300D03*
D39*
X105981500Y-148018500D03*
X105981500Y-146951700D03*
X109029500Y-148018500D03*
X109029500Y-146951700D03*
D10*
G36*
X164262782Y-145496503D02*
X164801598Y-144957687D01*
X165304492Y-145460581D01*
X164765676Y-145999397D01*
X164262782Y-145496503D01*
X164262782Y-145496503D01*
G37*
G36*
X163508440Y-144742161D02*
X164047256Y-144203345D01*
X164550150Y-144706239D01*
X164011334Y-145245055D01*
X163508440Y-144742161D01*
X163508440Y-144742161D01*
G37*
D38*
X114769900Y-141897100D03*
X113703100Y-141897100D03*
X115531900Y-140881100D03*
X114465100Y-140881100D03*
X114769900Y-139865100D03*
X113703100Y-139865100D03*
D39*
X109918500Y-135775700D03*
X109918500Y-136842500D03*
X110934500Y-135775700D03*
X110934500Y-136842500D03*
D38*
X102527100Y-140119100D03*
X103593900Y-140119100D03*
X102527100Y-141135100D03*
X103593900Y-141135100D03*
X102527100Y-143548100D03*
X103593900Y-143548100D03*
X92989400Y-123460000D03*
X91922600Y-123460000D03*
X96113600Y-123460000D03*
X95046800Y-123460000D03*
D39*
X96418400Y-119091200D03*
X96418400Y-118024400D03*
X97434400Y-119091200D03*
X97434400Y-118024400D03*
X106997500Y-149034500D03*
X106997500Y-147967700D03*
X98450400Y-119091200D03*
X98450400Y-118024400D03*
D38*
X101180900Y-123701300D03*
X100114100Y-123701300D03*
X70064600Y-152920000D03*
X71131400Y-152920000D03*
D39*
X121080200Y-164829800D03*
X121080200Y-163763000D03*
D38*
X70369400Y-155841000D03*
X69302600Y-155841000D03*
X70369400Y-158000000D03*
X69302600Y-158000000D03*
X70566600Y-161000000D03*
X71633400Y-161000000D03*
D39*
X73087200Y-162775200D03*
X73087200Y-161708400D03*
D38*
X76084400Y-160032000D03*
X75017600Y-160032000D03*
D39*
X76363800Y-155790200D03*
X76363800Y-156857000D03*
D38*
X75576400Y-151396000D03*
X74509600Y-151396000D03*
X80275400Y-155714000D03*
X79208600Y-155714000D03*
D39*
X71614000Y-156577600D03*
X71614000Y-157644400D03*
X76835000Y-148894800D03*
X76835000Y-149961600D03*
X107391200Y-154330400D03*
X107391200Y-155397200D03*
D38*
X80910400Y-153428000D03*
X79843600Y-153428000D03*
X102590600Y-159664400D03*
X103657400Y-159664400D03*
X70414000Y-147999800D03*
X71480800Y-147999800D03*
X106208000Y-159434000D03*
X107274800Y-159434000D03*
X76211400Y-152920000D03*
X75144600Y-152920000D03*
D39*
X100850000Y-156773000D03*
X100850000Y-155706200D03*
X108737400Y-153466800D03*
X108737400Y-154533600D03*
X112166400Y-156032200D03*
X112166400Y-157099000D03*
X121080200Y-166861800D03*
X121080200Y-165795000D03*
D38*
X103124000Y-155651200D03*
X102057200Y-155651200D03*
D39*
X79679800Y-148894800D03*
X79679800Y-149961600D03*
D38*
X71475600Y-145415000D03*
X72542400Y-145415000D03*
X97522600Y-154715600D03*
X98589400Y-154715600D03*
X99859400Y-161827600D03*
X98792600Y-161827600D03*
X72979000Y-144071800D03*
X71912200Y-144071800D03*
D39*
X81305400Y-146812000D03*
X81305400Y-147878800D03*
D38*
X72979000Y-142827200D03*
X71912200Y-142827200D03*
X93204600Y-149915000D03*
X94271400Y-149915000D03*
D10*
G36*
X164711795Y-130858686D02*
X165250611Y-130319870D01*
X165753505Y-130822764D01*
X165214689Y-131361580D01*
X164711795Y-130858686D01*
X164711795Y-130858686D01*
G37*
G36*
X163957453Y-130104344D02*
X164496269Y-129565528D01*
X164999163Y-130068422D01*
X164460347Y-130607238D01*
X163957453Y-130104344D01*
X163957453Y-130104344D01*
G37*
G36*
X164801598Y-136875457D02*
X165340414Y-136336641D01*
X165843308Y-136839535D01*
X165304492Y-137378351D01*
X164801598Y-136875457D01*
X164801598Y-136875457D01*
G37*
G36*
X164047256Y-136121115D02*
X164586072Y-135582299D01*
X165088966Y-136085193D01*
X164550150Y-136624009D01*
X164047256Y-136121115D01*
X164047256Y-136121115D01*
G37*
G36*
X157707196Y-127733556D02*
X157168380Y-127194740D01*
X157671274Y-126691846D01*
X158210090Y-127230662D01*
X157707196Y-127733556D01*
X157707196Y-127733556D01*
G37*
G36*
X156952854Y-128487898D02*
X156414038Y-127949082D01*
X156916932Y-127446188D01*
X157455748Y-127985004D01*
X156952854Y-128487898D01*
X156952854Y-128487898D01*
G37*
G36*
X160491075Y-130697040D02*
X159952259Y-130158224D01*
X160455153Y-129655330D01*
X160993969Y-130194146D01*
X160491075Y-130697040D01*
X160491075Y-130697040D01*
G37*
G36*
X159736733Y-131451382D02*
X159197917Y-130912566D01*
X159700811Y-130409672D01*
X160239627Y-130948488D01*
X159736733Y-131451382D01*
X159736733Y-131451382D01*
G37*
D38*
X153085800Y-160578800D03*
X154152600Y-160578800D03*
D39*
X172832000Y-112611600D03*
X172832000Y-111544800D03*
X137668000Y-118694200D03*
X137668000Y-117627400D03*
D38*
X139121000Y-111703200D03*
X138054200Y-111703200D03*
D39*
X130810000Y-105054400D03*
X130810000Y-106121200D03*
X117094000Y-107848400D03*
X117094000Y-108915200D03*
D38*
X124947800Y-128010000D03*
X123881000Y-128010000D03*
X114020600Y-117017800D03*
X115087400Y-117017800D03*
X117962800Y-126689200D03*
X119029600Y-126689200D03*
X122230000Y-158998000D03*
X123296800Y-158998000D03*
D10*
G36*
X164711796Y-134378945D02*
X164172980Y-133840129D01*
X164675874Y-133337235D01*
X165214690Y-133876051D01*
X164711796Y-134378945D01*
X164711796Y-134378945D01*
G37*
G36*
X163957454Y-135133287D02*
X163418638Y-134594471D01*
X163921532Y-134091577D01*
X164460348Y-134630393D01*
X163957454Y-135133287D01*
X163957454Y-135133287D01*
G37*
D39*
X96024000Y-150245200D03*
X96024000Y-151312000D03*
D38*
X75017600Y-161810000D03*
X76084400Y-161810000D03*
D39*
X78105700Y-168718200D03*
X78105700Y-167651400D03*
D38*
X77227400Y-163080000D03*
X76160600Y-163080000D03*
X71131400Y-151777000D03*
X70064600Y-151777000D03*
D39*
X66200000Y-160966600D03*
X66200000Y-162033400D03*
X91096400Y-163580200D03*
X91096400Y-162513400D03*
D38*
X95693800Y-162335600D03*
X94627000Y-162335600D03*
D39*
X97421000Y-158805000D03*
X97421000Y-157738200D03*
D38*
X108038900Y-150025100D03*
X106972100Y-150025100D03*
X108038900Y-146977100D03*
X106972100Y-146977100D03*
X111086900Y-150025100D03*
X110020100Y-150025100D03*
X111086900Y-146977100D03*
X110020100Y-146977100D03*
D39*
X67874000Y-123412600D03*
X67874000Y-124479400D03*
D38*
X160366600Y-155100000D03*
X161433400Y-155100000D03*
X162533400Y-151900000D03*
X161466600Y-151900000D03*
D39*
X131577200Y-169818400D03*
X131577200Y-168751600D03*
D40*
X101383400Y-157776300D03*
X100723000Y-157776300D03*
X100062600Y-157776300D03*
X100062600Y-158766900D03*
X100723000Y-158766900D03*
X101383400Y-158766900D03*
D41*
X95655700Y-164774000D03*
X95655700Y-164113600D03*
X95655700Y-163453200D03*
X94665100Y-163453200D03*
X94665100Y-164113600D03*
X94665100Y-164774000D03*
D27*
X141534000Y-128518000D03*
X114991000Y-143707200D03*
X130175000Y-169240200D03*
X133710800Y-155746800D03*
X134015600Y-150336600D03*
X97155000Y-160070800D03*
D42*
X151662600Y-114466600D03*
D43*
X152932600Y-114466600D03*
X151662600Y-115736600D03*
X152932600Y-115736600D03*
X151662600Y-117006600D03*
X152932600Y-117006600D03*
X151662600Y-118276600D03*
X152932600Y-118276600D03*
X151662600Y-119546600D03*
X152932600Y-119546600D03*
D44*
X168514000Y-108649200D03*
X170546000Y-108649200D03*
X168514000Y-106490200D03*
X170546000Y-106490200D03*
X170546000Y-117412200D03*
X168514000Y-117412200D03*
X170546000Y-115253200D03*
X168514000Y-115253200D03*
X82905600Y-122529600D03*
X84937600Y-122529600D03*
D45*
X87152600Y-123336400D03*
X87152600Y-125368400D03*
D27*
X98328600Y-106318400D03*
X136454000Y-128264000D03*
X155732600Y-123260200D03*
X155727400Y-125196600D03*
D45*
X174483000Y-113094200D03*
X174483000Y-111062200D03*
D44*
X169984000Y-122050000D03*
X172016000Y-122050000D03*
D46*
X80745300Y-158660400D03*
X80745300Y-158000000D03*
X80745300Y-157339600D03*
X78738700Y-157339600D03*
X78738700Y-158000000D03*
X78738700Y-158660400D03*
X71880700Y-154291600D03*
X71880700Y-154952000D03*
X71880700Y-155612400D03*
X73887300Y-155612400D03*
X73887300Y-154952000D03*
X73887300Y-154291600D03*
D38*
X131678800Y-162427000D03*
X132745600Y-162427000D03*
D28*
X84155400Y-118662800D03*
X85933400Y-118662800D03*
X85044400Y-120694800D03*
D47*
X105681920Y-166408700D03*
D48*
X104881000Y-167052200D03*
D47*
X105184080Y-167695700D03*
X105681920Y-167695700D03*
D48*
X105985000Y-167052200D03*
D47*
X105184080Y-166408700D03*
D49*
X98326900Y-166023680D03*
D50*
X98970400Y-166824600D03*
D49*
X99613900Y-166521520D03*
X99613900Y-166023680D03*
D50*
X98970400Y-165720600D03*
D49*
X98326900Y-166521520D03*
D47*
X104714480Y-158807500D03*
D48*
X105515400Y-158164000D03*
D47*
X105212320Y-157520500D03*
X104714480Y-157520500D03*
D48*
X104411400Y-158164000D03*
D47*
X105212320Y-158807500D03*
D49*
X108985000Y-156026380D03*
D50*
X109628500Y-156827300D03*
D49*
X110272000Y-156524220D03*
X110272000Y-156026380D03*
D50*
X109628500Y-155723300D03*
D49*
X108985000Y-156524220D03*
X89242300Y-144629680D03*
D50*
X89885800Y-145430600D03*
D49*
X90529300Y-145127520D03*
X90529300Y-144629680D03*
D50*
X89885800Y-144326600D03*
D49*
X89242300Y-145127520D03*
D47*
X84708720Y-139770700D03*
D48*
X83907800Y-140414200D03*
D47*
X84210880Y-141057700D03*
X84708720Y-141057700D03*
D48*
X85011800Y-140414200D03*
D47*
X84210880Y-139770700D03*
X77098880Y-141057700D03*
D48*
X77899800Y-140414200D03*
D47*
X77596720Y-139770700D03*
X77098880Y-139770700D03*
D48*
X76795800Y-140414200D03*
D47*
X77596720Y-141057700D03*
D17*
X160330000Y-105150000D03*
D18*
X160330000Y-107690000D03*
X157790000Y-105150000D03*
X157790000Y-107690000D03*
X155250000Y-105150000D03*
X155250000Y-107690000D03*
X152710000Y-105150000D03*
X152710000Y-107690000D03*
X150170000Y-105150000D03*
X150170000Y-107690000D03*
X147630000Y-105150000D03*
X147630000Y-107690000D03*
X145090000Y-105150000D03*
X145090000Y-107690000D03*
X142550000Y-105150000D03*
X142550000Y-107690000D03*
X140010000Y-105150000D03*
X140010000Y-107690000D03*
X137470000Y-105150000D03*
X137470000Y-107690000D03*
D51*
X61000000Y-119150000D03*
X61000000Y-116650000D03*
X61270000Y-131800000D03*
X61270000Y-129300000D03*
X61270000Y-140944000D03*
X61270000Y-138444000D03*
X61270000Y-145516000D03*
X61270000Y-143016000D03*
X61270000Y-150088000D03*
X61270000Y-147588000D03*
X61270000Y-136372000D03*
X61270000Y-133872000D03*
D38*
X63835400Y-133344000D03*
X62768600Y-133344000D03*
D52*
X94370400Y-155088600D03*
X93870400Y-155088600D03*
X93370400Y-155088600D03*
X92870400Y-155088600D03*
X92370400Y-155088600D03*
X91870400Y-155088600D03*
X91370400Y-155088600D03*
X90870400Y-155088600D03*
D53*
X92620400Y-157763600D03*
D54*
X89945400Y-156013600D03*
X89945400Y-156513600D03*
X89945400Y-157013600D03*
X89945400Y-157513600D03*
X89945400Y-158013600D03*
X89945400Y-158513600D03*
X89945400Y-159013600D03*
X89945400Y-159513600D03*
D52*
X90870400Y-160438600D03*
X91370400Y-160438600D03*
X91870400Y-160438600D03*
X92370400Y-160438600D03*
X92870400Y-160438600D03*
X93370400Y-160438600D03*
X93870400Y-160438600D03*
X94370400Y-160438600D03*
D54*
X95295400Y-159513600D03*
X95295400Y-159013600D03*
X95295400Y-158513600D03*
X95295400Y-158013600D03*
X95295400Y-157513600D03*
X95295400Y-157013600D03*
X95295400Y-156513600D03*
X95295400Y-156013600D03*
D55*
X126469200Y-165126000D03*
X126969200Y-165126000D03*
X127469200Y-165126000D03*
X127969200Y-165126000D03*
X128469200Y-165126000D03*
D56*
X129669200Y-163926000D03*
X129669200Y-163426000D03*
X129669200Y-162926000D03*
X129669200Y-162426000D03*
X129669200Y-161926000D03*
D55*
X128469200Y-160726000D03*
X127969200Y-160726000D03*
X127469200Y-160726000D03*
X126969200Y-160726000D03*
X126469200Y-160726000D03*
D56*
X125269200Y-161926000D03*
X125269200Y-162426000D03*
X125269200Y-162926000D03*
X125269200Y-163426000D03*
X125269200Y-163926000D03*
D57*
X127469200Y-162926000D03*
D17*
X84130000Y-128010000D03*
D18*
X84130000Y-125470000D03*
D17*
X145090000Y-112770000D03*
D18*
X147630000Y-112770000D03*
D17*
X157790000Y-112770000D03*
D18*
X160330000Y-112770000D03*
D58*
X69125000Y-170950000D03*
D59*
X75000000Y-170950000D03*
X81000000Y-170950000D03*
X87000000Y-170950000D03*
X93000000Y-170950000D03*
X99000000Y-170950000D03*
X105000000Y-170950000D03*
X111000000Y-170950000D03*
D58*
X116875000Y-170950000D03*
D60*
X118300000Y-169775000D03*
D61*
X118300000Y-164000000D03*
X118300000Y-158000000D03*
X118300000Y-152000000D03*
X118300000Y-146000000D03*
X118300000Y-140000000D03*
D60*
X118300000Y-134225000D03*
D58*
X116875000Y-133050000D03*
D59*
X111000000Y-133050000D03*
X105000000Y-133050000D03*
X99000000Y-133050000D03*
X93000000Y-133050000D03*
X87000000Y-133050000D03*
X81000000Y-133050000D03*
X75000000Y-133050000D03*
D58*
X69125000Y-133050000D03*
D60*
X67700000Y-134225000D03*
D61*
X67700000Y-140000000D03*
X67700000Y-146000000D03*
X67700000Y-152000000D03*
X67700000Y-158000000D03*
X67700000Y-164000000D03*
D60*
X67700000Y-169775000D03*
D62*
X171030000Y-112951200D03*
X171030000Y-112451200D03*
X171030000Y-111951200D03*
X171030000Y-111451200D03*
X171030000Y-110951200D03*
X168030000Y-110951200D03*
X168030000Y-111451200D03*
X168030000Y-111951200D03*
X168030000Y-112451200D03*
X168030000Y-112951200D03*
D63*
X169120000Y-111351200D03*
X169120000Y-112551200D03*
X169940000Y-112551200D03*
X169940000Y-111351200D03*
D64*
X169280000Y-113151200D03*
X169780000Y-113151200D03*
X169780000Y-110751200D03*
X169280000Y-110751200D03*
D65*
X169530000Y-111951200D03*
X169030000Y-112701200D03*
X170030000Y-112701200D03*
X170030000Y-111201200D03*
X169030000Y-111201200D03*
D19*
X62700000Y-109150000D03*
X62700000Y-113650000D03*
D20*
X65190000Y-114905000D03*
X65190000Y-107895000D03*
D39*
X68966200Y-111525400D03*
X68966200Y-112592200D03*
X68966200Y-124479400D03*
X68966200Y-125546200D03*
X127437000Y-158363000D03*
X127437000Y-157296200D03*
X128554600Y-156940600D03*
X128554600Y-155873800D03*
D38*
X130459600Y-150971600D03*
X131526400Y-150971600D03*
D39*
X134930000Y-164662200D03*
X134930000Y-165729000D03*
D38*
X134168000Y-166795800D03*
X135234800Y-166795800D03*
D39*
X127462400Y-155188000D03*
X127462400Y-156254800D03*
D38*
X129621400Y-154273600D03*
X128554600Y-154273600D03*
X160507800Y-121660000D03*
X159441000Y-121660000D03*
X159466400Y-122828400D03*
X160533200Y-122828400D03*
D17*
X167950000Y-163570000D03*
D18*
X167950000Y-166110000D03*
X165410000Y-163570000D03*
X165410000Y-166110000D03*
X162870000Y-163570000D03*
X162870000Y-166110000D03*
X160330000Y-163570000D03*
X160330000Y-166110000D03*
X157790000Y-163570000D03*
X157790000Y-166110000D03*
X155250000Y-163570000D03*
X155250000Y-166110000D03*
X152710000Y-163570000D03*
X152710000Y-166110000D03*
X150170000Y-163570000D03*
X150170000Y-166110000D03*
X147630000Y-163570000D03*
X147630000Y-166110000D03*
X145090000Y-163570000D03*
X145090000Y-166110000D03*
X142550000Y-163570000D03*
X142550000Y-166110000D03*
X140010000Y-163570000D03*
X140010000Y-166110000D03*
X137470000Y-163570000D03*
X137470000Y-166110000D03*
D17*
X91750000Y-105150000D03*
D18*
X91750000Y-107690000D03*
X89210000Y-105150000D03*
X89210000Y-107690000D03*
X86670000Y-105150000D03*
X86670000Y-107690000D03*
D27*
X96855400Y-161665000D03*
X88722200Y-161163000D03*
X87762200Y-159175800D03*
X87279600Y-155696000D03*
X102926000Y-161995200D03*
X71983600Y-146710400D03*
X74706600Y-166389400D03*
X144023200Y-154349800D03*
X78181200Y-150037800D03*
X82123400Y-154832400D03*
X73335000Y-141167200D03*
X81463000Y-149295200D03*
X86060400Y-144799400D03*
X86238200Y-138043000D03*
X94239200Y-142996000D03*
X109758600Y-163366800D03*
X105262800Y-161538000D03*
X99852600Y-153511600D03*
X99720400Y-151130000D03*
X96474400Y-153486200D03*
X94290000Y-148304600D03*
X87330400Y-157448600D03*
X103307000Y-145688400D03*
X104551600Y-146983800D03*
X132009000Y-135528400D03*
X120045600Y-143935800D03*
X95636200Y-108833000D03*
X128554600Y-152673400D03*
X131551800Y-156737400D03*
X111333400Y-123463400D03*
X113563400Y-109474000D03*
X103936800Y-105283000D03*
X111968400Y-119577200D03*
X113893600Y-111455200D03*
X119436000Y-107461400D03*
X111485800Y-114294000D03*
X166146600Y-138195400D03*
X162641400Y-129407000D03*
X167162600Y-129076800D03*
X158171000Y-151784400D03*
X158348800Y-120440800D03*
X67035800Y-129838800D03*
X139781400Y-122218800D03*
X142138400Y-123088400D03*
X147249000Y-115487800D03*
X142397600Y-120821800D03*
X142194400Y-114675000D03*
X133710800Y-126562200D03*
X135082400Y-133420200D03*
D38*
X175144400Y-151000000D03*
X176211200Y-151000000D03*
D39*
X173030000Y-164840000D03*
X173030000Y-165906800D03*
D27*
X167035600Y-158032800D03*
X154259400Y-158286800D03*
D66*
X89314020Y-142499080D03*
X84104600Y-151657400D03*
X75575160Y-144213580D03*
X74053700Y-146151600D03*
X93782000Y-138932000D03*
X85400000Y-161360200D03*
X75338940Y-157848300D03*
X79032100Y-151361140D03*
X113919000Y-161749740D03*
X104112060Y-168798240D03*
X104251760Y-165374320D03*
X101015800Y-166263320D03*
X79667100Y-147711160D03*
X109476540Y-159425640D03*
X99362260Y-147688300D03*
X103230680Y-154279600D03*
X112715040Y-153710640D03*
D39*
X119715400Y-166668800D03*
X119715400Y-165602000D03*
X81793200Y-120644000D03*
X81793200Y-119577200D03*
D27*
X112044600Y-159658400D03*
X102773600Y-166999000D03*
X97185600Y-148406200D03*
X91572200Y-140811600D03*
X74400000Y-164400000D03*
X81894800Y-151809800D03*
X87127200Y-161995200D03*
X69448800Y-146577400D03*
X105262800Y-152622600D03*
X113441600Y-151581200D03*
D17*
X145090000Y-117850000D03*
D18*
X145090000Y-120390000D03*
D17*
X178110000Y-130550000D03*
D18*
X178110000Y-133090000D03*
D17*
X124770000Y-155950000D03*
D18*
X122230000Y-155950000D03*
X124770000Y-153410000D03*
X122230000Y-153410000D03*
X124770000Y-150870000D03*
X122230000Y-150870000D03*
X124770000Y-148330000D03*
X122230000Y-148330000D03*
X124770000Y-145790000D03*
X122230000Y-145790000D03*
X124770000Y-143250000D03*
X122230000Y-143250000D03*
X124770000Y-140710000D03*
X122230000Y-140710000D03*
X124770000Y-138170000D03*
X122230000Y-138170000D03*
X124770000Y-135630000D03*
X122230000Y-135630000D03*
X124770000Y-133090000D03*
X122230000Y-133090000D03*
X124770000Y-130550000D03*
X122230000Y-130550000D03*
D17*
X129850000Y-133090000D03*
D18*
X132390000Y-133090000D03*
D67*
X64000000Y-104000000D03*
D68*
X64000000Y-101800000D03*
X61800000Y-104000000D03*
X64000000Y-106200000D03*
X66200000Y-104000000D03*
X65550000Y-102450000D03*
X62450000Y-102450000D03*
X62450000Y-105550000D03*
X65550000Y-105550000D03*
D67*
X64000000Y-171000000D03*
D68*
X64000000Y-168800000D03*
X61800000Y-171000000D03*
X64000000Y-173200000D03*
X66200000Y-171000000D03*
X65550000Y-169450000D03*
X62450000Y-169450000D03*
X62450000Y-172550000D03*
X65550000Y-172550000D03*
D67*
X176000000Y-171000000D03*
D68*
X176000000Y-168800000D03*
X173800000Y-171000000D03*
X176000000Y-173200000D03*
X178200000Y-171000000D03*
X177550000Y-169450000D03*
X174450000Y-169450000D03*
X174450000Y-172550000D03*
X177550000Y-172550000D03*
D67*
X176000000Y-104000000D03*
D68*
X176000000Y-101800000D03*
X173800000Y-104000000D03*
X176000000Y-106200000D03*
X178200000Y-104000000D03*
X177550000Y-102450000D03*
X174450000Y-102450000D03*
X174450000Y-105550000D03*
X177550000Y-105550000D03*
D67*
X126000000Y-104000000D03*
D68*
X126000000Y-101800000D03*
X123800000Y-104000000D03*
X126000000Y-106200000D03*
X128200000Y-104000000D03*
X127550000Y-102450000D03*
X124450000Y-102450000D03*
X124450000Y-105550000D03*
X127550000Y-105550000D03*
D67*
X131000000Y-144000000D03*
D68*
X131000000Y-141800000D03*
X128800000Y-144000000D03*
X131000000Y-146200000D03*
X133200000Y-144000000D03*
X132550000Y-142450000D03*
X129450000Y-142450000D03*
X129450000Y-145550000D03*
X132550000Y-145550000D03*
D38*
X124409200Y-160121600D03*
X123342400Y-160121600D03*
D69*
X161500000Y-153950000D03*
X161500000Y-153050000D03*
D70*
X167050000Y-153500000D03*
D71*
X114000000Y-129500000D03*
D44*
X176284000Y-115600000D03*
X178316000Y-115600000D03*
X176284000Y-117800000D03*
X178316000Y-117800000D03*
D17*
X106990000Y-128010000D03*
D18*
X106990000Y-130550000D03*
X104450000Y-128010000D03*
X104450000Y-130550000D03*
X101910000Y-128010000D03*
X101910000Y-130550000D03*
X99370000Y-128010000D03*
X99370000Y-130550000D03*
X96830000Y-128010000D03*
X96830000Y-130550000D03*
X94290000Y-128010000D03*
X94290000Y-130550000D03*
X91750000Y-128010000D03*
X91750000Y-130550000D03*
X89210000Y-128010000D03*
X89210000Y-130550000D03*
D38*
X139222600Y-127502000D03*
X140289400Y-127502000D03*
X126847600Y-169900600D03*
X127914400Y-169900600D03*
D39*
X122500000Y-167666600D03*
X122500000Y-168733400D03*
D72*
X63115000Y-161000000D03*
D73*
X63115000Y-157507500D03*
X63115000Y-164492500D03*
D72*
X176885000Y-163000000D03*
D73*
X176885000Y-166492500D03*
X176885000Y-159507500D03*
D72*
X176885000Y-145000000D03*
D73*
X176885000Y-148492500D03*
X176885000Y-141507500D03*
D28*
X71689000Y-165216000D03*
X69911000Y-165216000D03*
X70800000Y-163184000D03*
X69400000Y-161038000D03*
X69400000Y-162562000D03*
D38*
X71333400Y-166600000D03*
X70266600Y-166600000D03*
D39*
X72800000Y-167333400D03*
X72800000Y-166266600D03*
D28*
X167315000Y-120669400D03*
X167315000Y-122447400D03*
X165283000Y-121558400D03*
D44*
X169984000Y-127800000D03*
X172016000Y-127800000D03*
D38*
X161371400Y-124936600D03*
X160304600Y-124936600D03*
X166208400Y-125275000D03*
X165141600Y-125275000D03*
X166208400Y-124475000D03*
X165141600Y-124475000D03*
D74*
X170975000Y-125375000D03*
X170975000Y-124875000D03*
X170975000Y-124375000D03*
X169075000Y-124375000D03*
X169075000Y-124875000D03*
X169075000Y-125375000D03*
D75*
X170025000Y-124875000D03*
D76*
X175975000Y-125300000D03*
X175975000Y-124650000D03*
X175975000Y-124000000D03*
X175975000Y-123350000D03*
X175975000Y-122700000D03*
D77*
X178850000Y-124937500D03*
X178850000Y-123062500D03*
D78*
X175770000Y-126830000D03*
X175770000Y-121170000D03*
D79*
X177425000Y-126987500D03*
X177425000Y-121012500D03*
D80*
X178850000Y-128000000D03*
X178850000Y-120000000D03*
D19*
X178800000Y-128125000D03*
X178800000Y-119875000D03*
D81*
X175770000Y-126490000D03*
X175770000Y-121510000D03*
D82*
X171000000Y-102000000D03*
D83*
X78801000Y-146904000D03*
X78801000Y-146504000D03*
X78801000Y-146104000D03*
X78801000Y-145704000D03*
X76901000Y-145704000D03*
X76901000Y-146104000D03*
X76901000Y-146504000D03*
X76901000Y-146904000D03*
D84*
X77851000Y-146304000D03*
D85*
X77601000Y-146304000D03*
D86*
X77851000Y-146304000D03*
D87*
X78101000Y-146254000D03*
D10*
G36*
X78309553Y-146804211D02*
X78101211Y-147012553D01*
X77872447Y-146783789D01*
X78080789Y-146575447D01*
X78309553Y-146804211D01*
X78309553Y-146804211D01*
G37*
D88*
X78101000Y-146729000D03*
D11*
X78310000Y-152859000D03*
X77910000Y-152859000D03*
X77510000Y-152859000D03*
X77110000Y-152859000D03*
X77110000Y-154759000D03*
X77510000Y-154759000D03*
X77910000Y-154759000D03*
X78310000Y-154759000D03*
D12*
X77710000Y-153809000D03*
D13*
X77710000Y-154059000D03*
D14*
X77710000Y-153809000D03*
D15*
X77660000Y-153559000D03*
D10*
G36*
X78210211Y-153350447D02*
X78418553Y-153558789D01*
X78189789Y-153787553D01*
X77981447Y-153579211D01*
X78210211Y-153350447D01*
X78210211Y-153350447D01*
G37*
D16*
X78135000Y-153559000D03*
D89*
X73944200Y-142827200D03*
X154411800Y-141573600D03*
D43*
X119588400Y-167913400D03*
D90*
X120294400Y-173024800D03*
X108432600Y-164668200D03*
D89*
X147960200Y-152394000D03*
X73341200Y-146925600D03*
X76327700Y-167803800D03*
X139413100Y-156635800D03*
D90*
X145496400Y-122345800D03*
D43*
X123703200Y-123412600D03*
X123698000Y-115341400D03*
X128707000Y-114040000D03*
X117094000Y-110363000D03*
D89*
X86746200Y-160039400D03*
X81209000Y-168040400D03*
X88265000Y-156362400D03*
D43*
X119512200Y-163417600D03*
D90*
X127259200Y-110992000D03*
X128529200Y-112592200D03*
X128757800Y-111119000D03*
X129265800Y-111931800D03*
X129748400Y-112770000D03*
X122026800Y-121990200D03*
X122026800Y-119069200D03*
X122077600Y-120059800D03*
X122052200Y-121025000D03*
X129469000Y-135782400D03*
X117429400Y-122041000D03*
X129113400Y-134893400D03*
X117327800Y-120517000D03*
D89*
X136301600Y-119907400D03*
D90*
X120553600Y-121583800D03*
X139674600Y-143281400D03*
X142036800Y-140512800D03*
D89*
X145902800Y-150285800D03*
D43*
X84409400Y-103575200D03*
D89*
X165085000Y-112586200D03*
D90*
X127208400Y-111982600D03*
X169291000Y-147472400D03*
D89*
X160131864Y-140431638D03*
X160401272Y-141311703D03*
X157967800Y-141700600D03*
D90*
X167614600Y-149631400D03*
D89*
X159018313Y-141114138D03*
D90*
X157586800Y-135198200D03*
X123296800Y-157956600D03*
D89*
X152862400Y-146247200D03*
X142194400Y-145078800D03*
X145013800Y-142259400D03*
X141330800Y-145002600D03*
X145090000Y-141243400D03*
X153700600Y-145358200D03*
D90*
X156926400Y-154959400D03*
D89*
X154366540Y-152734589D03*
X151821000Y-159531400D03*
X153776800Y-153511600D03*
X154208600Y-154248200D03*
D90*
X151617800Y-134868000D03*
D43*
X85857200Y-109925200D03*
D89*
X151313000Y-133445600D03*
D90*
X142778600Y-153308400D03*
X144836000Y-149142800D03*
D43*
X83545800Y-106420000D03*
D89*
X138816200Y-155937300D03*
D90*
X175895120Y-107532520D03*
X172552600Y-110503400D03*
D43*
X86136600Y-102686200D03*
D89*
X157180400Y-145434400D03*
D90*
X154335600Y-144139000D03*
D89*
X147792993Y-124823953D03*
X143134200Y-137357200D03*
D90*
X127513200Y-149854000D03*
D89*
X146664800Y-130118200D03*
X145420200Y-131870800D03*
X145115400Y-133699600D03*
X145598000Y-134918800D03*
D90*
X127157600Y-148965000D03*
X126471800Y-149625400D03*
D89*
X144182930Y-135474537D03*
X145090000Y-136417400D03*
D90*
X126852800Y-150971600D03*
D89*
X146207600Y-132531200D03*
D90*
X126090800Y-147974400D03*
D89*
X146461600Y-134817200D03*
X145090000Y-115767200D03*
X148646000Y-122193400D03*
D90*
X144074000Y-114675000D03*
D89*
X147960200Y-123006200D03*
D90*
X162306000Y-157251400D03*
X154432000Y-148488400D03*
X162991800Y-158013400D03*
X157917000Y-155061000D03*
X155371800Y-159258000D03*
X156545400Y-155848400D03*
X155142400Y-116778000D03*
X157688400Y-119018400D03*
X155148400Y-117824600D03*
X158389695Y-148962882D03*
X168351200Y-157429200D03*
D43*
X167925000Y-124875000D03*
X168585000Y-122041000D03*
D90*
X161800000Y-123400000D03*
D43*
X176083080Y-111121540D03*
X165283000Y-120313800D03*
D90*
X158348800Y-123615800D03*
D89*
X143626154Y-152339458D03*
X145496400Y-153918000D03*
D43*
X76835000Y-151003000D03*
D89*
X70471000Y-159016000D03*
X73750000Y-157200000D03*
X77379800Y-155714000D03*
D90*
X124211200Y-161080800D03*
D89*
X98463100Y-108994700D03*
D90*
X132212200Y-130219800D03*
X115468400Y-136245600D03*
X130053200Y-137128600D03*
D89*
X102450900Y-117097300D03*
D90*
X106659800Y-120110600D03*
X125049400Y-126613000D03*
X117094000Y-111582200D03*
D43*
X134520174Y-144095583D03*
X151744305Y-155464587D03*
X147739111Y-128398095D03*
X155695618Y-133337236D03*
D91*
X158982392Y-143880057D03*
D43*
X160922127Y-138420061D03*
X154258777Y-131900395D03*
X175000000Y-119300000D03*
X168407200Y-127806800D03*
D90*
X160533200Y-123869800D03*
D43*
X172150000Y-124875000D03*
X75311000Y-163068000D03*
X73614400Y-168142000D03*
X65588000Y-162808000D03*
X176205000Y-152013000D03*
X128955800Y-169900600D03*
X122529600Y-169900600D03*
X124947800Y-128975200D03*
D90*
X138232000Y-127502000D03*
D43*
X112000000Y-129500000D03*
D90*
X159593400Y-154146600D03*
X163759000Y-151911400D03*
D43*
X129621400Y-123463400D03*
X112166400Y-158064200D03*
D90*
X97167000Y-149762600D03*
D43*
X92679800Y-141983000D03*
X69448800Y-147999800D03*
X81901000Y-153428000D03*
X89064400Y-163046800D03*
X104163000Y-167052200D03*
X106133900Y-151549100D03*
X111925100Y-151549100D03*
X118250000Y-167000000D03*
X80777200Y-120644000D03*
X134752200Y-110141100D03*
X96080700Y-116300600D03*
X94620200Y-112350900D03*
X102646600Y-105835800D03*
X173030000Y-166922800D03*
X133050400Y-166643400D03*
X130637400Y-154273600D03*
X127462400Y-154172000D03*
X129494400Y-150971600D03*
X67874000Y-122396600D03*
X69000000Y-159000000D03*
X67750000Y-143000000D03*
X67750000Y-149000000D03*
X67750000Y-155000000D03*
X67750000Y-167000000D03*
X99187000Y-163068000D03*
X119500000Y-141000000D03*
X114000000Y-171000000D03*
X108000000Y-171000000D03*
X102000000Y-171000000D03*
X72000000Y-171000000D03*
X78000000Y-171000000D03*
X96000000Y-171000000D03*
X90000000Y-171000000D03*
X84000000Y-171000000D03*
X117000000Y-145000000D03*
X118250000Y-137000000D03*
X94000000Y-134250000D03*
X114000000Y-133000000D03*
X104250000Y-134250000D03*
X118250000Y-161000000D03*
X118250000Y-149000000D03*
X118250000Y-155000000D03*
X119557800Y-161315400D03*
X108000000Y-133000000D03*
X99000000Y-134500000D03*
X67750000Y-137000000D03*
X72000000Y-133000000D03*
X78000000Y-133000000D03*
X84000000Y-133000000D03*
X90000000Y-133000000D03*
X62794000Y-136392000D03*
X62794000Y-131820000D03*
X62794000Y-150082600D03*
X62794000Y-145510600D03*
X62794000Y-140938600D03*
X62540000Y-118713600D03*
X87152600Y-121660000D03*
X139527400Y-155188000D03*
X143947000Y-155746800D03*
X138206600Y-126257400D03*
X124338200Y-158312200D03*
X121264800Y-158998000D03*
X120528200Y-162706400D03*
X133431400Y-146780600D03*
X131399400Y-137001600D03*
X131577200Y-170783600D03*
X140137000Y-111423800D03*
X130281800Y-157931200D03*
X164566600Y-155549600D03*
X131628000Y-159074200D03*
X138206600Y-124987400D03*
X117962800Y-127705200D03*
X139349600Y-152546400D03*
X158389695Y-126512241D03*
X165933110Y-130104344D03*
X125691200Y-166228000D03*
D89*
X96220400Y-126384400D03*
D90*
X105491400Y-119958200D03*
D43*
X102590600Y-160629600D03*
X100431600Y-154838400D03*
X102006400Y-154686000D03*
X107061000Y-153339800D03*
X74879200Y-139700000D03*
X88696800Y-157530800D03*
X82270600Y-147878800D03*
X77851000Y-147904200D03*
X75869800Y-148894800D03*
D89*
X94945200Y-126381000D03*
D43*
X106360400Y-158164000D03*
X71912200Y-141862000D03*
X70947000Y-144071800D03*
X77982800Y-143868600D03*
X79070200Y-168706800D03*
X106845100Y-116106700D03*
X83697800Y-143995600D03*
D89*
X80649800Y-137874200D03*
D43*
X161910000Y-111951200D03*
D91*
X101638100Y-140652500D03*
D43*
X154887395Y-156775704D03*
X70090000Y-150888000D03*
D91*
X93382400Y-164570800D03*
D90*
X92341000Y-149661000D03*
D89*
X101346000Y-120767600D03*
D43*
X98970400Y-167542600D03*
X76287600Y-154113800D03*
D91*
X90715400Y-164570800D03*
D43*
X107416600Y-119091200D03*
X94449200Y-166145600D03*
X81774000Y-158330200D03*
D90*
X92341000Y-151007200D03*
D43*
X159287720Y-127410267D03*
X170546000Y-105220200D03*
X122135200Y-165999400D03*
X161191535Y-129457765D03*
X166022912Y-136121115D03*
X142853852Y-124267177D03*
X78744800Y-140414200D03*
X122758200Y-110642400D03*
D91*
X160904166Y-133337236D03*
D90*
X102616000Y-119827800D03*
D43*
X83697800Y-136985200D03*
D90*
X98310000Y-150524600D03*
X94373000Y-151007200D03*
D43*
X160544956Y-151118143D03*
X149768649Y-123638559D03*
X102527100Y-144564100D03*
D89*
X80649800Y-136731200D03*
D43*
X108633400Y-168576200D03*
X112966500Y-135775700D03*
D89*
X104470200Y-120767600D03*
D43*
X110502700Y-113160300D03*
X99631500Y-105819700D03*
X80395800Y-144224200D03*
X120294400Y-113919000D03*
X170546000Y-118682200D03*
X98132900Y-107699300D03*
X113728500Y-146723100D03*
X166112715Y-132259605D03*
D91*
X94830900Y-113795300D03*
D43*
X116522500Y-140881100D03*
X109029500Y-149009100D03*
X109628500Y-157672300D03*
X165484097Y-134504669D03*
X165484097Y-146179002D03*
X166609000Y-111951200D03*
X88810400Y-154461600D03*
X95211900Y-110366300D03*
X131699000Y-105054400D03*
X71766400Y-159270000D03*
D91*
X74255600Y-161810000D03*
X115760500Y-139865100D03*
D89*
X93091000Y-126381000D03*
D43*
X105483800Y-163648600D03*
D90*
X100482400Y-119827800D03*
D43*
X97725800Y-162716600D03*
X87921400Y-151921600D03*
X164047256Y-147615843D03*
X74484200Y-150481600D03*
X111188500Y-134759700D03*
X171689000Y-108141200D03*
X152095200Y-160578800D03*
D90*
X93357000Y-151007200D03*
D43*
X136477870Y-130643159D03*
D90*
X174991000Y-115761200D03*
D89*
X91821000Y-126381000D03*
D43*
X102527100Y-139103100D03*
D90*
X103530400Y-119726200D03*
X97434400Y-119827800D03*
D91*
X73087200Y-163537200D03*
D43*
X92112400Y-164570800D03*
D90*
X172832000Y-113475200D03*
D43*
X100850000Y-161827600D03*
D91*
X108851700Y-150990300D03*
D43*
X110502700Y-111941100D03*
X69302600Y-157034800D03*
D90*
X98450400Y-119827800D03*
D43*
X161981797Y-149681302D03*
D90*
X99466400Y-119827800D03*
D89*
X80649800Y-139017200D03*
D43*
X105981500Y-149009100D03*
D89*
X100076000Y-120767600D03*
D43*
X86482200Y-143481600D03*
D90*
X96024000Y-149381600D03*
D91*
X115785900Y-141846300D03*
D43*
X114046000Y-116001800D03*
D91*
X109207300Y-152107900D03*
D90*
X96418400Y-119827800D03*
D43*
X121080200Y-167877800D03*
X69201000Y-152920000D03*
D89*
X103200200Y-120767600D03*
D43*
X74916000Y-155282200D03*
X118110000Y-107873800D03*
X81665800Y-144224200D03*
X69302600Y-154926600D03*
X70852000Y-154621800D03*
D91*
X109918500Y-134759700D03*
D43*
X77735400Y-157669800D03*
X171689000Y-115761200D03*
X96659000Y-154842600D03*
X83062800Y-140414200D03*
X136652000Y-118795800D03*
X126263400Y-123393200D03*
D90*
X174991000Y-109411200D03*
D43*
X89885800Y-146275600D03*
X174483000Y-114491200D03*
D90*
X164846000Y-139319000D03*
D89*
X76966800Y-138737800D03*
X84713800Y-138890200D03*
X154462600Y-139795600D03*
X77093800Y-141938200D03*
X84713800Y-142065200D03*
X148595200Y-141395800D03*
X97129600Y-155854400D03*
X97167000Y-152556600D03*
X149204800Y-142132400D03*
X97370200Y-156747600D03*
X98298000Y-153517600D03*
D90*
X143083400Y-147491800D03*
D89*
X96024000Y-152302600D03*
D90*
X95128200Y-150108000D03*
X144556600Y-145510600D03*
X136301600Y-161258600D03*
X104018200Y-163976400D03*
D89*
X108204000Y-155651200D03*
D90*
X106482000Y-161512600D03*
D89*
X105681920Y-168571120D03*
X175016400Y-108141200D03*
X166228000Y-110808200D03*
X173289200Y-114491200D03*
D90*
X161473000Y-119348600D03*
X157155000Y-130194400D03*
X159441000Y-125393800D03*
X165308400Y-129076800D03*
D89*
X154701360Y-132896960D03*
D90*
X148646000Y-139490800D03*
D89*
X107518200Y-137845800D03*
X88488800Y-144243600D03*
D90*
X101732200Y-164205000D03*
D89*
X137901800Y-161309400D03*
X97390520Y-166023680D03*
D90*
X150017600Y-132353400D03*
D89*
X104749600Y-145618200D03*
X75576400Y-150481600D03*
X147325200Y-151809800D03*
X70471000Y-156857000D03*
X72757000Y-156730000D03*
X73893400Y-144097200D03*
X154437200Y-142513400D03*
X129392800Y-166973600D03*
D90*
X133202800Y-151225600D03*
D89*
X138638400Y-148355400D03*
D90*
X135361800Y-163646200D03*
X134091800Y-159074200D03*
D89*
X129374200Y-166101000D03*
D90*
X134828400Y-162681000D03*
D89*
X138181200Y-149066600D03*
D90*
X134803000Y-151251000D03*
X131551800Y-150082600D03*
X143281400Y-140639800D03*
D89*
X108762800Y-134721600D03*
X143608193Y-128038885D03*
D90*
X135186540Y-129714340D03*
D89*
X107518200Y-136855200D03*
D90*
X99598600Y-107055000D03*
X113289200Y-143732600D03*
X129316600Y-129991200D03*
X99740840Y-108147200D03*
D89*
X91765400Y-144624600D03*
D90*
X99110800Y-164160200D03*
X136200000Y-162376200D03*
X101325800Y-160420400D03*
D89*
X104394000Y-156591000D03*
D90*
X150424000Y-133267800D03*
D89*
X104038400Y-144729200D03*
X152735400Y-144418400D03*
X73533000Y-160985200D03*
X79843600Y-154342400D03*
X78192600Y-156095000D03*
X80416400Y-146761200D03*
X154538800Y-140735400D03*
D43*
X72903200Y-165119400D03*
X119740800Y-164662200D03*
X63810000Y-134360000D03*
D90*
X104279700Y-140195300D03*
D91*
X110197900Y-137426700D03*
D43*
X105562400Y-117059200D03*
X101460300Y-107826300D03*
X98252400Y-110153800D03*
X97604700Y-112414400D03*
X99720400Y-160553400D03*
X92468000Y-153572600D03*
X93103000Y-161827600D03*
D89*
X104406700Y-143421100D03*
D43*
X99707000Y-155985600D03*
X75184700Y-167803800D03*
D89*
X104584500Y-141109700D03*
D91*
X103657400Y-117033800D03*
D43*
X109029500Y-146011900D03*
X105981500Y-145986500D03*
X74535000Y-148856000D03*
D90*
X112864900Y-141846300D03*
D43*
X97828100Y-114735100D03*
X112712500Y-144691100D03*
D90*
X100482400Y-117033800D03*
D43*
X79375700Y-166406800D03*
X70369400Y-149364000D03*
D90*
X112712500Y-140474700D03*
X146588600Y-122320400D03*
X168000800Y-132353400D03*
X156189800Y-121609200D03*
X166832400Y-150235000D03*
X63581400Y-117773800D03*
D43*
X120142000Y-126669800D03*
X82809200Y-118662800D03*
X135615800Y-144697800D03*
X163492300Y-136112600D03*
X159872800Y-147593400D03*
X123754000Y-144520000D03*
X67874000Y-109442600D03*
D90*
X137927200Y-128975200D03*
D43*
X142524600Y-156381800D03*
X126326200Y-159370000D03*
X123576200Y-162935000D03*
D90*
X113601500Y-140906500D03*
D43*
X134412411Y-137019141D03*
X116078000Y-117017800D03*
X107599600Y-112922400D03*
D91*
X129501200Y-168006000D03*
D43*
X91096400Y-161776800D03*
X137033000Y-111683800D03*
X155219400Y-160553400D03*
X130637400Y-161207800D03*
X133634600Y-160293400D03*
X132898000Y-157169200D03*
X138206600Y-123692000D03*
X129311400Y-160020000D03*
X124409200Y-164719000D03*
D90*
X158348800Y-116808600D03*
D43*
X146086744Y-154979653D03*
X163328836Y-144023741D03*
X130810000Y-107111800D03*
X145206679Y-126332636D03*
X151474898Y-124805993D03*
X138633131Y-132798420D03*
X136525000Y-117525800D03*
X141506813Y-150399722D03*
X152732133Y-154620443D03*
X161891995Y-145460582D03*
X159061418Y-131688461D03*
X156234433Y-128667503D03*
D91*
X131787200Y-166609000D03*
D89*
X111823500Y-138188700D03*
X150038057Y-130768883D03*
D90*
X142702400Y-127857600D03*
M02*
