G04 #@! TF.FileFunction,Profile,NP*
%FSLAX46Y46*%
G04 Gerber Fmt 4.6, Leading zero omitted, Abs format (unit mm)*
G04 Created by KiCad (PCBNEW (2015-03-02 BZR 5466)-product) date 2015 April 22, Wednesday 22:19:37*
%MOMM*%
G01*
G04 APERTURE LIST*
%ADD10C,0.150000*%
%ADD11C,0.381000*%
G04 APERTURE END LIST*
D10*
D11*
X180000000Y-126825000D02*
X180000000Y-138740000D01*
X180000000Y-122075000D02*
X180000000Y-125925000D01*
X180000000Y-104000000D02*
X180000000Y-121175000D01*
X178850000Y-125925000D02*
G75*
G03X178850000Y-126825000I0J-450000D01*
G01*
X180000000Y-126825000D02*
X178850000Y-126825000D01*
X180000000Y-125925000D02*
X178850000Y-125925000D01*
X178850000Y-121175000D02*
G75*
G03X178850000Y-122075000I0J-450000D01*
G01*
X178850000Y-122075000D02*
X180000000Y-122075000D01*
X180000000Y-121175000D02*
X178850000Y-121175000D01*
X60580000Y-155940000D02*
X60440000Y-155800000D01*
X60440000Y-166200000D02*
X60580000Y-166060000D01*
X60439340Y-166199340D02*
G75*
G03X60000000Y-167260000I1060660J-1060660D01*
G01*
X60580660Y-166060660D02*
G75*
G03X61020000Y-165000000I-1060660J1060660D01*
G01*
X60439340Y-155800660D02*
G75*
G02X60000000Y-154740000I1060660J1060660D01*
G01*
X60580660Y-155939340D02*
G75*
G02X61020000Y-157000000I-1060660J-1060660D01*
G01*
X180000000Y-171000000D02*
X180000000Y-169260000D01*
X179420000Y-168060000D02*
X179560000Y-168200000D01*
X179560660Y-168199340D02*
G75*
G02X180000000Y-169260000I-1060660J-1060660D01*
G01*
X179419340Y-168060660D02*
G75*
G02X178980000Y-167000000I1060660J1060660D01*
G01*
X179420000Y-139940000D02*
X179560000Y-139800000D01*
X179560660Y-139800660D02*
G75*
G03X180000000Y-138740000I-1060660J1060660D01*
G01*
X179419340Y-139939340D02*
G75*
G03X178980000Y-141000000I1060660J-1060660D01*
G01*
X60000000Y-167260000D02*
X60000000Y-171000000D01*
X60000000Y-154740000D02*
X60000000Y-104000000D01*
X61020000Y-157000000D02*
X61020000Y-165000000D01*
X178980000Y-141000000D02*
X178980000Y-167000000D01*
X176000000Y-100000000D02*
X64000000Y-100000000D01*
X64000000Y-175000000D02*
X176000000Y-175000000D01*
X176000000Y-175000000D02*
G75*
G03X180000000Y-171000000I0J4000000D01*
G01*
X180000000Y-104000000D02*
G75*
G03X176000000Y-100000000I-4000000J0D01*
G01*
X60000000Y-171000000D02*
G75*
G03X64000000Y-175000000I4000000J0D01*
G01*
X64000000Y-100000000D02*
G75*
G03X60000000Y-104000000I0J-4000000D01*
G01*
M02*
