M48
;DRILL file {pcbnew (2015-03-02 BZR 5466)-product} date 2015 April 22, Wednesday 22:20:33
;FORMAT={-:-/ absolute / metric / decimal}
FMAT,2
METRIC,TZ
T1C0.330
T2C0.330
T3C0.350
T4C0.381
T5C0.406
T6C0.508
T7C0.635
T8C0.700
T9C0.711
T10C0.900
T11C0.990
T12C1.016
T13C1.300
T14C3.200
%
G90
G05
M71
T1
X169.03Y-112.701
X169.53Y-111.951
T2
X70.471Y-156.857
X70.471Y-159.016
X72.757Y-156.73
X73.341Y-146.926
X73.533Y-160.985
X73.75Y-157.2
X73.893Y-144.097
X73.944Y-142.827
X75.576Y-150.482
X76.328Y-167.804
X76.967Y-138.738
X77.094Y-141.938
X77.38Y-155.714
X78.193Y-156.095
X79.844Y-154.342
X80.416Y-146.761
X80.65Y-136.731
X80.65Y-137.874
X80.65Y-139.017
X81.209Y-168.04
X84.714Y-138.89
X84.714Y-142.065
X86.746Y-160.039
X88.265Y-156.362
X88.489Y-144.244
X91.765Y-144.625
X91.821Y-126.381
X93.091Y-126.381
X94.945Y-126.381
X96.024Y-152.303
X96.22Y-126.384
X97.13Y-155.854
X97.167Y-152.557
X97.37Y-156.748
X97.391Y-166.024
X98.298Y-153.518
X98.463Y-108.995
X100.076Y-120.768
X101.346Y-120.768
X102.451Y-117.097
X103.2Y-120.768
X104.038Y-144.729
X104.394Y-156.591
X104.407Y-143.421
X104.47Y-120.768
X104.584Y-141.11
X104.75Y-145.618
X105.682Y-168.571
X107.518Y-136.855
X107.518Y-137.846
X108.204Y-155.651
X108.763Y-134.722
X111.823Y-138.189
X129.374Y-166.101
X129.393Y-166.974
X136.302Y-119.907
X137.902Y-161.309
X138.181Y-149.067
X138.638Y-148.355
X138.816Y-155.937
X139.413Y-156.636
X141.331Y-145.003
X142.194Y-145.079
X143.134Y-137.357
X143.608Y-128.039
X143.626Y-152.339
X144.183Y-135.475
X145.014Y-142.259
X145.09Y-115.767
X145.09Y-136.417
X145.09Y-141.243
X145.115Y-133.7
X145.42Y-131.871
X145.496Y-153.918
X145.598Y-134.919
X145.903Y-150.286
X146.208Y-132.531
X146.462Y-134.817
X146.665Y-130.118
X147.325Y-151.81
X147.793Y-124.824
X147.96Y-123.006
X147.96Y-152.394
X148.595Y-141.396
X148.646Y-122.193
X149.205Y-142.132
X150.038Y-130.769
X151.313Y-133.446
X151.821Y-159.531
X152.735Y-144.418
X152.862Y-146.247
X153.701Y-145.358
X153.777Y-153.512
X154.209Y-154.248
X154.367Y-152.735
X154.412Y-141.574
X154.437Y-142.513
X154.463Y-139.796
X154.539Y-140.735
X154.701Y-132.897
X157.18Y-145.434
X157.968Y-141.701
X159.018Y-141.114
X160.132Y-140.432
X160.401Y-141.312
X165.085Y-112.586
X166.228Y-110.808
X169.03Y-111.201
X170.03Y-111.201
X170.03Y-112.701
X173.289Y-114.491
X175.016Y-108.141
T3
X91.52Y-156.664
X91.52Y-157.764
X91.52Y-158.864
X92.62Y-156.664
X92.62Y-157.764
X92.62Y-158.864
X93.72Y-156.664
X93.72Y-157.764
X93.72Y-158.864
X126.809Y-162.266
X126.809Y-163.586
X127.469Y-162.926
X128.129Y-162.266
X128.129Y-163.586
T4
X61.8Y-104.
X61.8Y-171.
X62.45Y-102.45
X62.45Y-105.55
X62.45Y-169.45
X62.45Y-172.55
X62.52Y-156.5
X62.52Y-157.5
X62.52Y-158.5
X62.52Y-163.5
X62.52Y-164.5
X62.52Y-165.5
X63.52Y-156.5
X63.52Y-157.5
X63.52Y-158.5
X63.52Y-163.5
X63.52Y-164.5
X63.52Y-165.5
X64.Y-101.8
X64.Y-106.2
X64.Y-168.8
X64.Y-173.2
X64.52Y-156.5
X64.52Y-157.5
X64.52Y-158.5
X64.52Y-163.5
X64.52Y-164.5
X64.52Y-165.5
X65.55Y-102.45
X65.55Y-105.55
X65.55Y-169.45
X65.55Y-172.55
X66.2Y-104.
X66.2Y-171.
X101.245Y-110.812
X101.245Y-112.462
X101.245Y-114.112
X102.895Y-110.812
X102.895Y-112.462
X102.895Y-114.112
X104.545Y-110.812
X104.545Y-112.462
X104.545Y-114.112
X107.148Y-140.397
X107.148Y-141.897
X107.148Y-143.397
X108.648Y-140.397
X108.648Y-141.897
X108.648Y-143.397
X110.148Y-140.397
X110.148Y-141.897
X110.148Y-143.397
X123.8Y-104.
X124.45Y-102.45
X124.45Y-105.55
X126.Y-101.8
X126.Y-106.2
X127.55Y-102.45
X127.55Y-105.55
X128.2Y-104.
X128.8Y-144.
X129.45Y-142.45
X129.45Y-145.55
X131.Y-141.8
X131.Y-146.2
X132.55Y-142.45
X132.55Y-145.55
X133.2Y-144.
X173.8Y-104.
X173.8Y-171.
X174.45Y-102.45
X174.45Y-105.55
X174.45Y-169.45
X174.45Y-172.55
X175.48Y-140.5
X175.48Y-141.5
X175.48Y-142.5
X175.48Y-147.5
X175.48Y-148.5
X175.48Y-149.5
X175.48Y-158.5
X175.48Y-159.5
X175.48Y-160.5
X175.48Y-165.5
X175.48Y-166.5
X175.48Y-167.5
X176.Y-101.8
X176.Y-106.2
X176.Y-168.8
X176.Y-173.2
X176.48Y-140.5
X176.48Y-141.5
X176.48Y-142.5
X176.48Y-147.5
X176.48Y-148.5
X176.48Y-149.5
X176.48Y-158.5
X176.48Y-159.5
X176.48Y-160.5
X176.48Y-165.5
X176.48Y-166.5
X176.48Y-167.5
X177.48Y-140.5
X177.48Y-141.5
X177.48Y-142.5
X177.48Y-147.5
X177.48Y-148.5
X177.48Y-149.5
X177.48Y-158.5
X177.48Y-159.5
X177.48Y-160.5
X177.48Y-165.5
X177.48Y-166.5
X177.48Y-167.5
X177.55Y-102.45
X177.55Y-105.55
X177.55Y-169.45
X177.55Y-172.55
X178.2Y-104.
X178.2Y-171.
T5
X63.581Y-117.774
X92.341Y-149.661
X92.341Y-151.007
X93.357Y-151.007
X94.373Y-151.007
X95.128Y-150.108
X96.024Y-149.382
X96.418Y-119.828
X97.167Y-149.763
X97.434Y-119.828
X98.31Y-150.525
X98.45Y-119.828
X99.111Y-164.16
X99.466Y-119.828
X99.599Y-107.055
X99.741Y-108.147
X100.482Y-117.034
X100.482Y-119.828
X101.326Y-160.42
X101.732Y-164.205
X102.616Y-119.828
X103.53Y-119.726
X104.018Y-163.976
X104.28Y-140.195
X105.491Y-119.958
X106.482Y-161.513
X106.66Y-120.111
X108.433Y-164.668
X112.712Y-140.475
X112.865Y-141.846
X113.289Y-143.733
X113.602Y-140.906
X115.468Y-136.246
X117.094Y-111.582
X117.328Y-120.517
X117.429Y-122.041
X120.294Y-173.025
X120.554Y-121.584
X122.027Y-119.069
X122.027Y-121.99
X122.052Y-121.025
X122.078Y-120.06
X123.297Y-157.957
X124.211Y-161.081
X125.049Y-126.613
X126.091Y-147.974
X126.472Y-149.625
X126.853Y-150.972
X127.158Y-148.965
X127.208Y-111.983
X127.259Y-110.992
X127.513Y-149.854
X128.529Y-112.592
X128.758Y-111.119
X129.113Y-134.893
X129.266Y-111.932
X129.317Y-129.991
X129.469Y-135.782
X129.748Y-112.77
X130.053Y-137.129
X131.552Y-150.083
X132.212Y-130.22
X133.203Y-151.226
X134.092Y-159.074
X134.803Y-151.251
X134.828Y-162.681
X135.187Y-129.714
X135.362Y-163.646
X136.2Y-162.376
X136.302Y-161.259
X137.927Y-128.975
X138.232Y-127.502
X139.675Y-143.281
X142.037Y-140.513
X142.702Y-127.858
X142.779Y-153.308
X143.083Y-147.492
X143.281Y-140.64
X144.074Y-114.675
X144.557Y-145.511
X144.836Y-149.143
X145.496Y-122.346
X146.589Y-122.32
X148.646Y-139.491
X150.018Y-132.353
X150.424Y-133.268
X151.618Y-134.868
X154.336Y-144.139
X154.432Y-148.488
X155.142Y-116.778
X155.148Y-117.825
X155.372Y-159.258
X156.19Y-121.609
X156.545Y-155.848
X156.926Y-154.959
X157.155Y-130.194
X157.587Y-135.198
X157.688Y-119.018
X157.917Y-155.061
X158.349Y-116.809
X158.349Y-123.616
X158.39Y-148.963
X159.441Y-125.394
X159.593Y-154.147
X160.533Y-123.87
X161.473Y-119.349
X161.8Y-123.4
X162.306Y-157.251
X162.992Y-158.013
X163.759Y-151.911
X164.846Y-139.319
X165.308Y-129.077
X166.832Y-150.235
X167.615Y-149.631
X168.001Y-132.353
X168.351Y-157.429
X169.291Y-147.472
X172.553Y-110.503
X172.832Y-113.475
X174.991Y-109.411
X174.991Y-115.761
X175.895Y-107.533
T6
X73.087Y-163.537
X74.256Y-161.81
X90.715Y-164.571
X93.382Y-164.571
X94.831Y-113.795
X101.638Y-140.653
X103.657Y-117.034
X108.852Y-150.99
X109.207Y-152.108
X109.918Y-134.76
X110.198Y-137.427
X115.76Y-139.865
X115.786Y-141.846
X129.501Y-168.006
X131.787Y-166.609
X158.982Y-143.88
X160.904Y-133.337
T7
X62.54Y-118.714
X62.794Y-131.82
X62.794Y-136.392
X62.794Y-140.939
X62.794Y-145.511
X62.794Y-150.083
X63.81Y-134.36
X65.588Y-162.808
X67.75Y-137.
X67.75Y-143.
X67.75Y-149.
X67.75Y-155.
X67.75Y-167.
X67.874Y-109.443
X67.874Y-122.397
X69.Y-159.
X69.201Y-152.92
X69.303Y-154.927
X69.303Y-157.035
X69.449Y-148.
X70.09Y-150.888
X70.369Y-149.364
X70.852Y-154.622
X70.947Y-144.072
X71.766Y-159.27
X71.912Y-141.862
X72.Y-133.
X72.Y-171.
X72.903Y-165.119
X73.614Y-168.142
X74.484Y-150.482
X74.535Y-148.856
X74.879Y-139.7
X74.916Y-155.282
X75.185Y-167.804
X75.311Y-163.068
X75.87Y-148.895
X76.288Y-154.114
X76.835Y-151.003
X77.735Y-157.67
X77.851Y-147.904
X77.983Y-143.869
X78.Y-133.
X78.Y-171.
X78.745Y-140.414
X79.07Y-168.707
X79.376Y-166.407
X80.396Y-144.224
X80.777Y-120.644
X81.666Y-144.224
X81.774Y-158.33
X81.901Y-153.428
X82.271Y-147.879
X82.809Y-118.663
X83.063Y-140.414
X83.546Y-106.42
X83.698Y-136.985
X83.698Y-143.996
X84.Y-133.
X84.Y-171.
X84.409Y-103.575
X85.857Y-109.925
X86.137Y-102.686
X86.482Y-143.482
X87.153Y-121.66
X87.921Y-151.922
X88.697Y-157.531
X88.81Y-154.462
X89.064Y-163.047
X89.886Y-146.276
X90.Y-133.
X90.Y-171.
X91.096Y-161.777
X92.112Y-164.571
X92.468Y-153.573
X92.68Y-141.983
X93.103Y-161.828
X94.Y-134.25
X94.449Y-166.146
X94.62Y-112.351
X95.212Y-110.366
X96.Y-171.
X96.081Y-116.301
X96.659Y-154.843
X97.605Y-112.414
X97.726Y-162.717
X97.828Y-114.735
X98.133Y-107.699
X98.252Y-110.154
X98.97Y-167.543
X99.Y-134.5
X99.187Y-163.068
X99.631Y-105.82
X99.707Y-155.986
X99.72Y-160.553
X100.432Y-154.838
X100.85Y-161.828
X101.46Y-107.826
X102.Y-171.
X102.006Y-154.686
X102.527Y-139.103
X102.527Y-144.564
X102.591Y-160.63
X102.647Y-105.836
X104.163Y-167.052
X104.25Y-134.25
X105.484Y-163.649
X105.562Y-117.059
X105.981Y-145.987
X105.981Y-149.009
X106.134Y-151.549
X106.36Y-158.164
X106.845Y-116.107
X107.061Y-153.34
X107.417Y-119.091
X107.6Y-112.922
X108.Y-133.
X108.Y-171.
X108.633Y-168.576
X109.029Y-146.012
X109.029Y-149.009
X109.628Y-157.672
X110.503Y-111.941
X110.503Y-113.16
X111.188Y-134.76
X111.925Y-151.549
X112.Y-129.5
X112.166Y-158.064
X112.712Y-144.691
X112.966Y-135.776
X113.728Y-146.723
X114.Y-133.
X114.Y-171.
X114.046Y-116.002
X116.078Y-117.018
X116.522Y-140.881
X117.Y-145.
X117.094Y-110.363
X117.963Y-127.705
X118.11Y-107.874
X118.25Y-137.
X118.25Y-149.
X118.25Y-155.
X118.25Y-161.
X118.25Y-167.
X119.5Y-141.
X119.512Y-163.418
X119.558Y-161.315
X119.588Y-167.913
X119.741Y-164.662
X120.142Y-126.67
X120.294Y-113.919
X120.528Y-162.706
X121.08Y-167.878
X121.265Y-158.998
X122.135Y-165.999
X122.53Y-169.901
X122.758Y-110.642
X123.576Y-162.935
X123.698Y-115.341
X123.703Y-123.413
X123.754Y-144.52
X124.338Y-158.312
X124.409Y-164.719
X124.948Y-128.975
X125.691Y-166.228
X126.263Y-123.393
X126.326Y-159.37
X127.462Y-154.172
X128.707Y-114.04
X128.956Y-169.901
X129.311Y-160.02
X129.494Y-150.972
X129.621Y-123.463
X130.282Y-157.931
X130.637Y-154.274
X130.637Y-161.208
X130.81Y-107.112
X131.399Y-137.002
X131.577Y-170.784
X131.628Y-159.074
X131.699Y-105.054
X132.898Y-157.169
X133.05Y-166.643
X133.431Y-146.781
X133.635Y-160.293
X134.412Y-137.019
X134.52Y-144.096
X134.752Y-110.141
X135.616Y-144.698
X136.478Y-130.643
X136.525Y-117.526
X136.652Y-118.796
X137.033Y-111.684
X138.207Y-123.692
X138.207Y-124.987
X138.207Y-126.257
X138.633Y-132.798
X139.35Y-152.546
X139.527Y-155.188
X140.137Y-111.424
X141.507Y-150.4
X142.525Y-156.382
X142.854Y-124.267
X143.947Y-155.747
X145.207Y-126.333
X146.087Y-154.98
X147.739Y-128.398
X149.769Y-123.639
X151.475Y-124.806
X151.744Y-155.465
X152.095Y-160.579
X152.732Y-154.62
X154.259Y-131.9
X154.887Y-156.776
X155.219Y-160.553
X155.696Y-133.337
X156.234Y-128.668
X158.39Y-126.512
X159.061Y-131.688
X159.288Y-127.41
X159.873Y-147.593
X160.545Y-151.118
X160.922Y-138.42
X161.192Y-129.458
X161.892Y-145.461
X161.91Y-111.951
X161.982Y-149.681
X163.329Y-144.024
X163.492Y-136.113
X164.047Y-147.616
X164.567Y-155.55
X165.283Y-120.314
X165.484Y-134.505
X165.484Y-146.179
X165.933Y-130.104
X166.023Y-136.121
X166.113Y-132.26
X166.609Y-111.951
X167.925Y-124.875
X168.407Y-127.807
X168.585Y-122.041
X170.546Y-105.22
X170.546Y-118.682
X171.689Y-108.141
X171.689Y-115.761
X172.15Y-124.875
X173.03Y-166.923
X174.483Y-114.491
X175.Y-119.3
X176.083Y-111.122
X176.205Y-152.013
T8
X175.77Y-121.51
X175.77Y-126.49
T9
X151.663Y-114.467
X151.663Y-115.737
X151.663Y-117.007
X151.663Y-118.277
X151.663Y-119.547
X152.933Y-114.467
X152.933Y-115.737
X152.933Y-117.007
X152.933Y-118.277
X152.933Y-119.547
T10
X178.8Y-119.875
X178.8Y-128.125
T11
X62.7Y-109.15
X62.7Y-113.65
X62.7Y-122.15
X62.7Y-126.65
T12
X84.13Y-125.47
X84.13Y-128.01
X86.67Y-105.15
X86.67Y-107.69
X89.21Y-105.15
X89.21Y-107.69
X89.21Y-128.01
X89.21Y-130.55
X91.75Y-105.15
X91.75Y-107.69
X91.75Y-128.01
X91.75Y-130.55
X94.29Y-128.01
X94.29Y-130.55
X96.83Y-128.01
X96.83Y-130.55
X99.37Y-128.01
X99.37Y-130.55
X101.91Y-128.01
X101.91Y-130.55
X104.45Y-128.01
X104.45Y-130.55
X106.99Y-128.01
X106.99Y-130.55
X122.23Y-130.55
X122.23Y-133.09
X122.23Y-135.63
X122.23Y-138.17
X122.23Y-140.71
X122.23Y-143.25
X122.23Y-145.79
X122.23Y-148.33
X122.23Y-150.87
X122.23Y-153.41
X122.23Y-155.95
X124.77Y-130.55
X124.77Y-133.09
X124.77Y-135.63
X124.77Y-138.17
X124.77Y-140.71
X124.77Y-143.25
X124.77Y-145.79
X124.77Y-148.33
X124.77Y-150.87
X124.77Y-153.41
X124.77Y-155.95
X129.85Y-133.09
X132.39Y-133.09
X137.47Y-105.15
X137.47Y-107.69
X137.47Y-158.49
X137.47Y-163.57
X137.47Y-166.11
X140.01Y-105.15
X140.01Y-107.69
X140.01Y-158.49
X140.01Y-163.57
X140.01Y-166.11
X142.55Y-105.15
X142.55Y-107.69
X142.55Y-158.49
X142.55Y-163.57
X142.55Y-166.11
X145.09Y-105.15
X145.09Y-107.69
X145.09Y-112.77
X145.09Y-117.85
X145.09Y-120.39
X145.09Y-158.49
X145.09Y-163.57
X145.09Y-166.11
X147.63Y-105.15
X147.63Y-107.69
X147.63Y-112.77
X147.63Y-158.49
X147.63Y-163.57
X147.63Y-166.11
X150.17Y-105.15
X150.17Y-107.69
X150.17Y-158.49
X150.17Y-163.57
X150.17Y-166.11
X152.71Y-105.15
X152.71Y-107.69
X152.71Y-163.57
X152.71Y-166.11
X155.25Y-105.15
X155.25Y-107.69
X155.25Y-163.57
X155.25Y-166.11
X157.79Y-105.15
X157.79Y-107.69
X157.79Y-112.77
X157.79Y-163.57
X157.79Y-166.11
X160.33Y-105.15
X160.33Y-107.69
X160.33Y-112.77
X160.33Y-163.57
X160.33Y-166.11
X162.87Y-163.57
X162.87Y-166.11
X165.41Y-163.57
X165.41Y-166.11
X167.95Y-163.57
X167.95Y-166.11
X170.49Y-130.55
X170.49Y-133.09
X170.49Y-135.63
X170.49Y-138.17
X170.49Y-140.71
X170.49Y-143.25
X170.49Y-145.79
X170.49Y-148.33
X170.49Y-150.87
X170.49Y-153.41
X170.49Y-155.95
X173.03Y-130.55
X173.03Y-133.09
X173.03Y-135.63
X173.03Y-138.17
X173.03Y-140.71
X173.03Y-143.25
X173.03Y-145.79
X173.03Y-148.33
X173.03Y-150.87
X173.03Y-153.41
X173.03Y-155.95
X178.11Y-130.55
X178.11Y-133.09
T13
X65.19Y-107.895
X65.19Y-114.905
X65.19Y-120.895
X65.19Y-127.905
T14
X64.Y-104.
X64.Y-171.
X126.Y-104.
X131.Y-144.
X176.Y-104.
X176.Y-171.
T0
M30
